<?xml version="1.0" encoding="UTF-8" standalone="no"?>
<!DOCTYPE svg PUBLIC "-//W3C//DTD SVG 1.1//EN" "http://www.w3.org/Graphics/SVG/1.1/DTD/svg11.dtd">
<svg width="100%" height="100%" viewBox="0 0 2796 835" version="1.1" xmlns="http://www.w3.org/2000/svg" xmlns:xlink="http://www.w3.org/1999/xlink" xml:space="preserve" xmlns:serif="http://www.serif.com/" style="fill-rule:evenodd;clip-rule:evenodd;stroke-linejoin:round;stroke-miterlimit:2;">
    <g transform="matrix(1,0,0,1,-417.472,-700.869)">
        <path d="M417.472,1535.43L417.472,700.869L3212.6,700.869L3212.6,1464.57C3190.61,1455.61 3191.73,1315.28 3174.31,1269.18C3157.51,1224.7 3121.83,1275.52 3119.18,1208.16C3116.1,1129.71 3098.31,1005.27 3068.99,974.274C3057.12,961.737 2974.39,948.82 3000,1015.75C3035.82,1109.35 2881.66,1124.11 2905.51,1015.75C2910.99,990.846 2941.36,940.317 2929.13,921.26C2905.27,884.068 2841.75,886.978 2854.93,938.956C2888.22,1070.3 2697.11,1056.01 2720.12,940.34C2726.15,910.052 2751.11,855.232 2721.9,824.535C2691.12,792.199 2613.04,783.825 2615.68,823.491C2622.25,922.101 2509.17,878.705 2532.15,824.339C2543.84,796.695 2475.03,799.32 2455.73,799.045C2382.39,798.002 2392.33,863.107 2397.61,889.942C2420.26,1005.04 2223.51,997.747 2253.13,877.61C2259.29,852.649 2224.55,820.333 2165.61,823.525C2118.6,826.071 2106.78,874.086 2118.14,920.213C2150.49,1051.51 1945.57,1045.75 1979.42,906.843C1989.05,867.356 1974.61,818.343 1937.3,819.7C1874.68,821.979 1884.02,872.455 1891.89,900.22C1915.57,983.756 1798.73,1005.82 1816.28,907.204C1825.1,857.672 1804.09,801.503 1767.86,811.975C1751.5,816.704 1737.29,859.121 1748.93,915.058C1767.4,1003.77 1630.3,1035.23 1655.69,915.101C1667.29,860.232 1639.21,834.17 1564.88,837.968C1453.6,843.652 1470.08,900.5 1515.74,1041.22C1571.53,1213.18 1312.2,1203.25 1348.74,1061.85C1366.77,992.097 1369.65,978.409 1344.08,927.998C1286.63,814.724 1064.52,885.364 1091.14,983.758C1145.73,1185.54 848.335,1179.38 944.882,961.595C992.118,855.044 735.626,852.121 804.879,1013.27C853.436,1126.27 640.189,1198.2 681.415,1017.42C718.736,853.764 536.004,834.969 484.028,1018.14C470.886,1064.46 446.445,1297.17 444.855,1317.45C442.164,1351.77 442.499,1511.4 417.472,1535.43Z"/>
    </g>
</svg>
