<?xml version="1.0" encoding="UTF-8" standalone="no"?>
<!DOCTYPE svg PUBLIC "-//W3C//DTD SVG 1.1//EN" "http://www.w3.org/Graphics/SVG/1.1/DTD/svg11.dtd">
<svg width="100%" height="100%" viewBox="0 0 2796 469" version="1.1" xmlns="http://www.w3.org/2000/svg" xmlns:xlink="http://www.w3.org/1999/xlink" xml:space="preserve" xmlns:serif="http://www.serif.com/" style="fill-rule:evenodd;clip-rule:evenodd;stroke-linejoin:round;stroke-miterlimit:2;">
    <g transform="matrix(1,0,0,1,-417.472,-700.869)">
        <path d="M417.472,786.528L417.472,700.869L3212.6,700.869L3212.6,786.528C3138.81,786.528 3133.36,845.932 3138.35,866.152C3159.86,953.394 3039.28,948.097 3065.42,868.739C3070.82,852.348 3069.01,816.047 3034.46,810.898C2996.23,805.202 2965.11,822.398 2973.85,841.927C3014.78,933.412 2873.11,937.607 2920.28,837.182C2932.93,810.251 2876.46,804.484 2848.88,822.607C2807.33,849.907 2853.71,929.473 2854.93,938.956C2872.33,1074.79 2677.62,1058.62 2720.12,940.34C2730.57,911.278 2751.11,855.232 2721.9,824.535C2691.12,792.199 2613.04,783.825 2615.68,823.491C2622.25,922.101 2509.17,878.705 2532.15,824.339C2543.84,796.695 2475.03,799.32 2455.73,799.045C2382.39,798.002 2392.33,863.107 2397.61,889.942C2420.26,1005.04 2223.51,997.747 2253.13,877.61C2259.29,852.649 2224.55,820.333 2165.61,823.525C2118.6,826.071 2106.78,874.086 2118.14,920.213C2150.49,1051.51 1945.57,1045.75 1979.42,906.843C1989.05,867.356 1974.61,818.343 1937.3,819.7C1874.68,821.979 1884.02,872.455 1891.89,900.22C1915.57,983.756 1798.73,1005.82 1816.28,907.204C1825.1,857.672 1804.09,801.503 1767.86,811.975C1751.5,816.704 1737.29,859.121 1748.93,915.058C1767.4,1003.77 1630.3,1035.23 1655.69,915.101C1667.29,860.232 1639.21,834.17 1564.88,837.968C1453.6,843.652 1470.08,900.5 1515.74,1041.22C1571.53,1213.18 1312.2,1203.25 1348.74,1061.85C1366.77,992.097 1369.65,978.409 1344.08,927.998C1286.63,814.724 1054.08,888.803 1091.14,983.758C1170.85,1187.99 842.983,1163.91 944.882,961.595C958.373,934.809 951.83,904.634 945.706,885.966C924.733,822.036 788.549,865.634 814.761,918.273C881.308,1051.91 674.395,1087.85 720.696,895.246C748.891,777.963 565.782,827.828 584.717,908.358C616.793,1044.78 481.413,1008.21 496.853,958.554C522.828,875.013 499.406,787.453 417.472,786.528Z"/>
    </g>
</svg>
