<?xml version="1.0" encoding="UTF-8" standalone="no"?>
<!DOCTYPE svg PUBLIC "-//W3C//DTD SVG 1.1//EN" "http://www.w3.org/Graphics/SVG/1.1/DTD/svg11.dtd">
<svg width="100%" height="100%" viewBox="0 0 1774 2404" version="1.1" xmlns="http://www.w3.org/2000/svg" xmlns:xlink="http://www.w3.org/1999/xlink" xml:space="preserve" xmlns:serif="http://www.serif.com/" style="fill-rule:evenodd;clip-rule:evenodd;stroke-linejoin:round;stroke-miterlimit:2;">
    <g transform="matrix(1,0,0,1,-449.527,-834.04)">
        <g transform="matrix(1.33984,0,0,1.33984,739.377,742.324)">
            <path d="M514.56,207.703C514.474,209.358 514.127,216.464 514.127,223.569C514.127,253.179 510.99,268.656 503.456,278.905C501.825,281.121 500.774,282.801 500.3,284.558C499.584,287.214 500.213,289.989 501.701,294.871C505.032,305.698 510.449,314.774 518.693,323.186C523.699,328.25 529.715,332.916 534.049,335.255C535.577,336.079 536.818,336.641 537.66,336.641C539.016,336.641 539.868,337.153 540.37,337.746C540.97,338.455 541.244,339.441 540.885,340.655C540.552,341.778 539.453,343.353 537.512,344.851C533.527,347.93 525.37,351.628 521.024,352.352C521.009,352.355 520.993,352.357 520.978,352.36C518.933,352.652 517.237,353.839 514.826,356.249C511.604,359.472 510.929,360.825 509.435,366.563C509.433,366.573 509.43,366.583 509.427,366.593C508.274,370.764 506.66,375.459 505.774,377.155C505.462,377.778 505.199,378.196 505.139,378.612C505.098,378.894 505.308,379.11 505.576,379.514C506.197,380.449 507.251,381.698 508.863,383.627L508.867,383.632C514.494,390.401 519.59,399.195 522.403,406.932L522.404,406.934C525.327,414.995 525.138,430.231 521.861,442.987C521.86,442.991 521.859,442.995 521.858,443C520.738,447.238 520.128,449.348 520.208,451.207C520.286,453 521.045,454.52 522.433,457.605C522.437,457.615 522.441,457.624 522.445,457.633C524.086,461.431 527.801,471.875 530.736,480.853C535.372,495.023 536.223,498.532 536.573,505.875C537.715,525.675 532.504,538.994 515.697,558.355C507.295,568.101 497.679,582.021 495.579,587.65C495.577,587.655 495.575,587.66 495.573,587.665C491.864,597.359 492.082,600.729 496.465,643.381C500.9,686.101 518.808,746.556 538.846,786.292L538.849,786.298C544.2,797 553.878,813.31 558.635,819.765L558.641,819.773C566.029,829.91 589.39,864.781 595.583,875.187C600.74,883.696 606.243,893.753 615.696,912.229C620.948,922.305 633.42,949.661 636.432,957.405L636.433,957.409C640.831,968.79 648.07,991.38 649.968,999.575C651.183,1004.78 651.98,1013.54 652.674,1028.12C653.157,1037.29 653.976,1046.42 654.12,1048C654.258,1048.23 654.412,1048.59 654.501,1049.09C654.659,1049.97 654.694,1051.86 654.557,1054.05C654.386,1056.7 653.874,1069.88 653.36,1083.3C651.042,1145.98 650.438,1153.37 644.685,1191.06C637.994,1234.98 632.418,1262.87 618.178,1322.75C561.216,1519.45 527.229,1777.92 914.612,1844.59C972.236,1854.51 1008.53,1860.33 1107.21,1861.76C1107.23,1861.76 -216.431,1862.81 -216.331,1861.76C-216.209,1860.34 -117.682,1857.25 -14.9,1817.9C100.961,1773.55 185.043,1625.77 229.271,1458.5C263.365,1329.56 271.336,1138.33 269.797,1123.71C269.796,1123.7 269.795,1123.7 269.795,1123.69C269.365,1119.22 268.591,1108.74 268.076,1100.49C267.562,1092.27 266.193,1075.16 265.081,1062.41C263.965,1049.71 262.764,1035.04 262.421,1029.81C262.42,1029.8 262.42,1029.79 262.419,1029.78C262.164,1024.66 261.139,1013.92 260.287,1005.9C258.659,991.593 257.801,982.932 254.373,949.767C253.428,940.571 252.31,923.897 251.794,912.811C251.282,901.793 250.343,886.504 249.575,878.903L249.574,878.898C247.763,860.524 248.289,817.306 250.446,803.59L250.447,803.583C252.86,788.587 256.823,771.783 261.305,757.132L261.306,757.128C263.181,751.05 264.676,748.281 264.394,744.95C264.231,743.026 263.445,740.932 261.87,737.841C259.279,732.756 254.634,725.252 247.017,712.384C239.549,699.851 231.997,686.976 230.186,683.614C227.184,678.126 213.062,653.39 202.703,635.242C198.053,627.169 196.822,624.096 194.364,614.704L194.362,614.697C191.419,603.271 192.901,568.038 197.835,535.838L197.835,535.835C203.598,498.505 209.016,477.688 222.778,439.498L222.779,439.495C230,419.553 245.904,381.476 252.008,369.44C256.122,361.299 263.831,350.451 269.435,344.933C275.057,339.313 285.846,332.362 295.152,328.324C295.158,328.321 295.163,328.319 295.169,328.317C297,327.542 298.948,326.277 299.609,325.346C302.064,321.536 304.169,311.197 304.661,301.613C305.163,290.901 304.801,288.81 299.779,272.572C295.162,257.762 293.609,249.047 293.434,238.854L293.434,238.838C293.346,228.922 294.079,226.098 302.24,206.354L302.243,206.346C308.902,190.414 310.846,181.984 311.773,166.306C312.555,151.192 313.413,147.363 320.19,127.64C327.92,104.976 337.244,90.809 348.928,83.254C358.677,76.931 365.598,75.18 388.169,73.599C394.906,73.094 402.99,71.92 407.958,70.657C413.53,69.241 419.282,68.453 423.616,68.453C430.125,68.453 431.229,68.713 437.83,72.197C437.834,72.199 437.837,72.201 437.84,72.202C441.515,74.168 450.829,78.953 458.604,82.798C458.608,82.8 458.612,82.802 458.616,82.804C475.239,91.159 482.975,96.396 492.025,105.359C497.701,110.947 499.308,113.248 503.477,121.94L503.479,121.945C506.09,127.428 509.306,135.435 510.612,139.699C510.613,139.703 510.614,139.706 510.615,139.71C511.896,143.978 514.457,152.003 516.335,157.551L516.336,157.555C519.732,167.654 519.882,168.642 519.435,175.881L519.435,175.891C518.6,188.341 516.856,200.955 515.532,205.504C515.234,206.527 514.871,207.256 514.56,207.703ZM287.98,669.549C288.067,669.288 288.152,669.011 288.218,668.748C288.655,667 289.078,664.539 289.606,661.42C292.505,644.114 293.178,633.2 293.263,596.115C293.348,549.682 292.354,539.983 284.531,515.152C283.226,511.041 282.223,508.195 281.376,506.413C280.819,509.398 279.821,515.603 278.82,522.545C277.445,532.085 274.953,546.695 273.32,554.947C268.47,579.791 266.588,594.765 266.588,609.4L266.588,609.414C266.505,621.353 266.641,622.766 268.88,629.317C268.884,629.33 268.889,629.343 268.893,629.356C270.164,633.34 275.26,644.696 280.093,654.617C283.22,660.947 285.421,665.388 287.044,668.095C287.384,668.663 287.694,669.147 287.98,669.549ZM457.975,1226.32C467.4,1198.04 475.283,1162.65 478.71,1133.35C479.481,1126.75 480.424,1119.21 480.852,1116.64C481.281,1114.07 482.652,1101.91 483.851,1089.65C485.051,1077.4 486.85,1061.04 487.793,1053.24C489.678,1038.07 490.192,1024.53 489.078,1015.37C488.393,1008.94 487.107,1007.06 472.455,990.432C466.372,983.663 464.915,982.378 464.401,983.578C463.801,985.206 457.975,1024.36 455.147,1046.38C450.606,1081.09 449.664,1108.08 450.521,1168.91C450.863,1195.99 451.12,1224.35 451.035,1231.89C450.863,1240.63 451.12,1245.17 451.634,1244.31C452.063,1243.63 454.89,1235.49 457.975,1226.32ZM376.662,234.622C380.003,236.078 381.631,236.078 384.459,234.793C386.173,234.022 386.601,233.251 386.601,230.852C386.601,227.596 385.916,225.025 382.488,215.686C380.603,210.631 379.404,208.831 374.263,203.947C369.893,199.834 367.494,198.121 365.866,198.121C363.124,198.121 360.296,201.377 359.525,205.49C358.069,213.201 368.608,231.109 376.662,234.622ZM434.069,980.836C434.8,983.566 438.097,983.663 445.722,981.093C450.692,979.465 452.577,978.008 463.716,967.641C470.57,961.214 478.539,953.931 481.281,951.361C484.108,948.79 487.115,945.625 487.964,944.249C490.386,940.322 491.906,932.254 493.362,917.002C494.048,909.205 495.676,897.295 497.047,890.44C501.159,869.705 501.673,865.764 500.988,857.966C500.731,853.939 500.129,835.003 499.703,815.896C498.928,781.194 498.932,781.194 494.219,752.062C489.335,721.816 488.307,713.676 484.708,677.089C480.938,639.646 480.938,601.688 484.708,562.274C486.85,539.739 488.564,532.028 501.331,487.987C503.301,481.303 507.327,469.479 510.413,461.682C517.264,444.373 519.324,436.748 519.924,425.609C520.609,415.242 519.153,408.901 514.183,399.647C505.872,384.053 490.535,368.887 450.435,336.585C440.153,328.359 434.584,323.218 434.584,322.19C434.584,320.391 437.668,322.104 446.236,328.53C456.004,335.899 472.284,346.61 472.884,346.01C473.055,345.838 472.37,342.84 471.256,339.412C469.542,333.757 469.285,331.444 469.371,318.506C469.371,305.482 469.628,303.168 471.599,296.913C473.741,289.887 473.739,289.902 470.228,289.459C468.256,289.21 461.745,288.774 455.576,288.602C442.638,288.002 435.27,286.8 418.904,282.433C412.478,280.718 406.994,279.434 406.822,279.605C406.651,279.777 406.822,286.717 407.336,294.943C408.707,319.791 406.908,341.212 402.024,359.205C399.111,369.83 391.485,384.224 385.23,390.822C373.234,403.589 355.514,406.921 349.757,397.505C347.45,393.731 347.449,386.546 349.672,385.167C351.045,384.315 351.814,384.482 354.47,386.624C358.84,390.051 364.839,392.883 366.723,392.279C369.638,391.343 372.991,386.968 373.491,383.368C373.932,380.199 373.663,379.683 369.122,374.714C366.465,371.886 364.323,369.059 364.323,368.63C364.323,368.116 366.637,365.46 369.379,362.718C373.063,359.119 374.756,356.629 375.462,353.978C376.628,349.599 376.999,341.642 376.062,338.384C375.372,335.986 375.383,335.992 370.664,340.269C368.012,342.672 365.18,344.639 364.323,344.639C363.467,344.639 362.623,345.071 362.438,345.667C361.638,348.256 360.211,344.896 359.696,338.898C358.754,327.502 357.305,316.018 356.526,314.05C356.017,312.763 355.07,312.079 353.784,312.079C351.471,312.079 325.766,320.134 316.769,323.647C305.716,327.931 283.439,339.241 278.04,343.268C268.016,350.637 259.019,363.746 250.193,383.882C232.628,424.153 217.291,466.052 211.036,490.729C204.182,518.147 198.098,561.76 197.498,588.75C196.899,611.884 199.041,620.796 208.637,636.818C211.636,641.788 218.662,653.955 224.232,663.808C229.801,673.748 237.684,687.628 241.882,694.654C255.077,717.36 267.433,738.34 268.358,739.638C269.145,740.741 269.254,740.741 268.872,739.467C268.639,738.688 268.701,737.924 269.044,737.753C269.729,737.496 273.157,729.013 279.24,712.648C282.839,702.966 287.209,685.572 287.209,681.116C287.209,680.003 282.325,669.121 276.413,657.039C262.875,629.278 261.075,623.109 261.761,606.829C262.36,593.291 265.017,573.841 268.872,554.477C274.013,528.172 277.098,503.924 276.584,494.499C275.898,483.874 274.185,474.106 270.929,462.882C267.844,452.171 267.501,447.459 270.243,453.456C274.785,463.653 284.295,490.729 288.58,505.723C301.603,551.649 304.774,561.331 311.714,575.812C317.283,587.722 321.996,594.405 329.879,601.774C337.162,608.629 344.959,612.827 350.614,612.827C357.811,612.827 362.436,610.597 369.036,603.916C376.402,596.459 379.318,591.063 387.029,570.414C396.026,546.08 397.74,540.682 400.739,525.088C403.823,509.236 404.937,496.898 406.394,462.882C407.508,435.549 408.022,430.75 409.735,430.75C412.991,430.75 412.22,471.793 408.364,510.007C406.394,529.2 405.537,541.881 404.594,566.987C404.08,579.753 403.224,596.29 402.624,603.83C399.71,642.131 402.195,657.554 417.875,698.51C422.845,711.534 429.871,731.498 439.553,759.774C449.064,787.706 457.889,821.894 461.574,844.6C465.772,870.647 465.258,905.606 460.546,918.63C459.774,920.686 456.775,925.399 453.777,929.083C447.779,936.538 439.725,947.762 439.725,948.705C439.725,950.161 442.636,950.33 445.123,949.133C451.545,946.041 471.427,922.486 471.427,917.945C471.427,917.43 471.856,917.002 472.284,917.002C473.912,917.002 473.141,920.601 470.399,925.913C466.972,932.339 443.666,956.502 436.211,961.3C432.527,963.699 431.156,965.07 431.156,966.527C431.156,967.555 431.67,968.669 432.356,968.926C434.412,969.697 445.465,963.357 456.347,955.131C462.002,950.933 467.829,946.563 469.371,945.449C472.284,943.564 472.284,943.564 471.256,945.877C468.942,951.361 451.634,967.041 439.296,974.838C436.469,976.552 433.984,978.18 433.812,978.351C433.641,978.522 433.747,979.631 434.069,980.836ZM309.658,475.991C307.173,478.562 304.774,478.99 304.002,476.934C303.745,476.248 305.63,470.85 308.201,464.938C314.97,449.601 316.941,442.917 318.997,428.266C322.339,404.103 322.767,401.618 323.624,401.875C325.766,402.475 322.596,438.462 319.254,450.715C315.827,463.567 312.057,473.421 309.658,475.991ZM376.833,476.077C376.233,479.076 375.205,480.018 374.263,478.39C373.92,477.962 372.378,469.565 370.664,459.711C366.894,438.033 365.694,415.242 368.093,413.271C369.978,411.729 370.15,412.071 371.178,417.555C374.777,437.262 377.947,470.079 376.833,476.077ZM467.143,285.86C474.34,286.631 488.138,285.865 490.706,284.489C495.166,282.099 500.731,275.835 503.301,270.437C509.813,256.557 511.784,220.141 507.5,191.695C505.872,180.556 503.813,175.673 497.047,166.418C493.79,161.963 493.362,161.708 488.821,161.106C484.965,160.594 483.337,160.763 479.824,162.305C475.54,164.105 475.54,164.105 473.912,162.048C471.513,158.878 471.941,158.021 476.825,156.564C480.852,155.279 481.794,155.285 486.679,156.393C491.99,157.598 491.991,157.593 491.991,155.279C491.991,145.34 485.651,140.113 467.572,135.229C454.034,131.545 437.943,126.113 433.298,123.662C430.994,122.446 428.764,121.334 428.414,121.177C427.993,120.988 427.729,123.405 427.729,126.49C427.729,134.715 426.272,140.199 421.56,149.538C414.962,162.819 413.763,169.76 416.676,179.099C417.618,181.841 417.618,181.841 423.702,176.272C431.071,169.588 435.012,167.532 441.952,166.761C446.922,166.247 447.169,166.339 448.636,168.56C451.019,172.169 450.006,172.93 442.381,173.615C433.727,174.301 432.613,174.729 425.244,180.299C419.932,184.24 419.246,185.011 419.76,186.982C420.617,190.752 421.474,190.752 425.758,186.982C434.755,179.013 441.952,178.928 450.606,186.725C453.777,189.552 454.306,190.579 454.805,194.608C455.335,198.89 455.315,199.162 453.691,198.635C452.145,198.133 452.063,198.464 452.406,203.347C452.834,208.488 452.756,208.629 450.863,208.146C449.071,207.688 448.978,207.803 449.407,211.23C449.749,213.201 450.198,216.11 450.521,217.657C451.342,221.588 449.835,221.084 446.665,216.114C443.066,210.545 442.474,210.289 441.781,213.972C441.103,217.572 439.977,217.83 438.782,214.658C438.266,213.287 437.046,211.338 436.04,210.288C434.111,208.273 434.147,208.23 433.641,210.716C433.38,212.001 432.78,213.053 432.184,212.944C430.63,212.661 430.902,213.457 434.069,221.341C439.301,234.363 441.781,244.989 440.924,250.559C439.296,260.241 428.928,266.153 420.789,261.955C416.504,259.641 415.23,253 419.332,254.072C420.277,254.319 422.331,254.072 423.787,253.472C425.244,252.872 426.878,252.511 427.472,252.701C428.943,253.17 430.471,249.788 430.471,245.761C430.556,240.791 427.735,234.19 420.703,222.455C417.364,216.884 413.334,209.345 411.877,205.832C407.336,195.122 405.023,190.409 404.423,190.409C403.224,190.409 402.709,198.635 403.138,211.659C403.566,223.911 406.107,265.543 406.565,268.21C406.858,269.917 426.701,277.549 439.296,280.805C449.064,283.29 456.433,284.661 467.143,285.86ZM479.824,227.424C479.31,228.967 472.541,229.395 472.113,227.939C471.427,226.139 473.227,222.112 474.598,222.112C475.454,222.112 475.711,222.626 475.283,223.654C474.169,226.482 474.426,226.825 477.339,226.568C479.396,226.311 480.081,226.568 479.824,227.424ZM494.133,254.329C489.078,257.671 462.859,255.871 462.859,252.101C462.859,251.673 466.029,249.274 469.971,246.789C481.624,239.077 485.051,237.278 486.936,237.792C487.878,238.049 489.763,237.878 491.134,237.364C496.618,235.479 502.102,239.506 500.817,244.475C499.96,247.646 496.532,252.787 494.133,254.329ZM491.82,222.54C490.877,223.74 489.763,224.683 489.335,224.683C487.964,224.683 488.478,222.883 490.706,220.227C494.562,215.686 493.533,211.744 487.621,208.831C484.708,207.289 482.566,205.318 480.424,202.148C478.796,199.749 476.054,196.064 474.426,194.008C471.256,190.067 470.742,188.696 472.541,188.781C473.569,188.781 480.338,197.093 483.423,202.148C484.365,203.69 486.85,205.832 489.249,207.032C493.362,209.088 495.419,211.916 495.419,215.343C495.419,216.286 496.018,217.914 496.704,219.027C497.903,220.741 497.903,221.17 496.789,222.026C495.419,223.226 493.362,222.54 494.133,221.17C495.247,219.456 493.448,220.484 491.82,222.54ZM502.273,204.547C502.273,207.375 500.474,205.575 498.075,200.52C496.704,197.521 494.97,194.367 494.219,193.408C492.898,191.722 492.934,191.78 492.848,194.094C492.848,197.435 491.466,197.014 488.821,192.808C487.1,190.071 486.41,189.464 486.165,190.666C485.624,193.317 483.946,192.117 480.253,186.382C476.663,180.807 476.654,180.813 478.71,176.7C479.824,174.472 481.818,171.408 483.08,169.931C485.176,167.479 485.734,167.202 488.393,167.703C493.529,168.671 497.218,170.874 498.417,173.872C499.103,175.415 500.131,179.785 500.645,183.64C501.588,189.295 501.502,190.666 500.56,191.266C499.617,191.866 499.713,192.892 500.902,197.607C501.68,200.69 502.273,203.776 502.273,204.547ZM448.893,924.028C449.41,930.711 449.407,930.711 452.234,927.455C456.947,922.229 459.26,916.574 460.717,906.634C461.402,901.579 462.027,896.438 462.002,895.067C461.959,892.752 461.745,892.925 459.774,896.866C458.575,899.266 455.49,904.835 453.005,909.291C448.379,917.43 448.382,917.43 448.893,924.028Z"/>
        </g>
    </g>
</svg>
