<?xml version="1.0" encoding="UTF-8" standalone="no"?>
<!DOCTYPE svg PUBLIC "-//W3C//DTD SVG 1.1//EN" "http://www.w3.org/Graphics/SVG/1.1/DTD/svg11.dtd">
<svg width="100%" height="100%" viewBox="0 0 274 274" version="1.1" xmlns="http://www.w3.org/2000/svg" xmlns:xlink="http://www.w3.org/1999/xlink" xml:space="preserve" xmlns:serif="http://www.serif.com/" style="fill-rule:evenodd;clip-rule:evenodd;stroke-linejoin:round;stroke-miterlimit:2;">
    <g transform="matrix(1,0,0,1,-38.857,-24.9145)">
        <g transform="matrix(0.800116,0,0,0.800116,31.8749,32.3392)">
            <rect x="8.726" y="-9.28" width="341.717" height="341.717" style="fill:white;"/>
        </g>
        <g transform="matrix(1,0,0,1,6.33499,-43.049)">
            <path d="M98.51,214.914L98.824,214.706C98.716,214.882 98.61,214.952 98.51,214.914Z" style="fill:rgb(184,136,39);"/>
        </g>
        <g transform="matrix(1,0,0,1,6.33499,-43.049)">
            <path d="M198.836,234.211C191.834,227.795 189.585,222.495 189.351,210.763C189.116,199.032 193.494,135.817 198.887,135.488C204.281,135.159 212.739,141.252 213.9,149.631C215.061,158.009 229.246,195.418 229.246,195.418L220.413,226.791C220.413,226.791 205.837,240.628 198.836,234.211Z" style="fill:rgb(34,10,7);"/>
        </g>
        <g transform="matrix(1,0,0,1,6.33499,-43.049)">
            <path d="M142.994,229.037L120.385,230.03L124.771,144.86C125.418,129.545 132.502,124.855 147.177,132.69L152.809,193.727L142.994,229.037Z" style="fill:rgb(24,8,6);"/>
        </g>
        <g transform="matrix(1,0,0,1,6.33499,-43.049)">
            <path d="M198.477,235.097L200.025,257.749L170.201,275.156L139.72,233.185C128.201,225.406 140.292,226.138 140.918,217.503C141.263,212.738 141.598,206.811 142.064,200.3C144.789,203.192 147.583,205.454 150.406,207.181C149.689,208.146 149.478,209.023 149.924,209.756C153.362,215.408 158.983,212.815 162.654,217.774C166.325,222.733 166.876,223.135 166.913,226.916C166.951,230.697 167.044,237.517 169.504,241.867C171.964,246.218 174.326,244.745 178.078,243.624C181.83,242.503 185.128,241.646 182.505,247.996C179.883,254.346 176.828,258.093 187.712,251.904C192.432,249.22 196.004,242.204 198.477,235.097Z" style="fill:rgb(207,173,163);"/>
        </g>
        <g transform="matrix(1,0,0,1,6.33499,-43.049)">
            <path d="M194.206,205.058C194.056,212.546 197.036,230.107 197.802,225.213L198.477,235.097C196.004,242.204 192.432,249.22 187.712,251.904C176.828,258.093 179.883,254.346 182.505,247.996C185.128,241.646 181.83,242.503 178.078,243.624C174.326,244.745 171.964,246.218 169.504,241.867C167.044,237.517 166.951,230.697 166.913,226.916C166.876,223.135 165.573,223.21 162.654,217.774C159.85,212.552 156.991,214.281 149.924,209.73C149.203,209.265 149.689,208.146 150.406,207.181C167.749,217.886 185.838,208.556 192.958,203.45L194.527,202.338C194.203,203.741 194.298,203.396 194.199,204.664L194.206,205.014L194.206,205.058Z" style="fill:rgb(184,126,108);"/>
        </g>
        <g transform="matrix(1,0,0,1,6.33499,-43.049)">
            <path d="M123.011,236.426C116.904,240.216 109.037,243.083 102.043,245.161C102.376,243.394 102.461,241.527 102.287,239.575C101.655,232.484 100.535,234.072 105.269,224.579C110.003,215.085 112.081,221.928 114.937,212.629C117.793,203.331 109.483,202.482 110.149,196.133C110.816,189.783 116.939,182.217 111.521,176.693C106.104,171.17 109.91,173.207 117.003,168.099C124.095,162.992 117.273,157.989 115.341,150.527C113.41,143.065 116.649,134.413 123.097,130.991C127.957,128.411 125.312,125.229 123.234,122.513C124.196,122.446 125.276,122.531 126.483,122.737C128.858,112.623 132.335,109.642 136.338,110.06C137.539,106.897 139.811,104.371 143.382,102.617C146.335,101.166 150.177,100.244 155.038,99.928C165.21,90.95 170.848,94.616 174.59,103.572C178.996,101.689 182.63,101.359 184.797,103.979C189.348,99.289 194.089,100.825 199.028,108.885C206.984,109.096 213.061,112.604 212.614,120.144L215.95,123.312C215.554,131.723 216.345,143.377 217.505,146.986C218.979,151.57 227.602,152.769 230.728,157.242L231.397,159.525L231.768,162.037C230.688,169.397 220.602,165.057 230.435,176.66C240.54,188.583 232.933,203.493 227.57,211.524C222.206,219.556 224.828,230.025 231.098,234.063C236.19,237.343 240.309,237.248 242.398,243.184L232.107,239.011C230.747,240.277 227.273,240.181 223.223,238.959C217.252,230.606 206.553,223.236 212.679,212.708C219.012,201.822 218.82,199.663 218.131,192.857C217.443,186.052 216.247,185.609 219.808,182.424C223.369,179.24 219.726,170.171 219.269,166.985C218.813,163.8 216.081,165.15 217.996,158.317C219.911,151.484 210.817,151.308 210.435,147.914C210.054,144.52 209.419,136.599 207.15,135.232C206.252,134.691 203.614,135.153 200.756,135.918C199.116,120.552 138.755,115.847 133.285,142.003C129.401,144.02 125.662,147.397 124.661,152.852C123.361,159.928 130.169,162.596 132.415,165.489L132.518,168.89L132.51,168.904C128.844,173.855 123.965,183.508 128.063,192.014C132.161,200.521 123.383,213.561 125.415,221.266C127.446,228.97 125.892,228.91 123.198,235.667C123.105,235.899 123.041,236.153 123.011,236.426Z" style="fill:rgb(131,64,11);"/>
        </g>
        <g transform="matrix(1,0,0,1,6.33499,-43.049)">
            <path d="M132.518,168.89C132.721,176.086 132.66,189.033 131.731,189.052C131.731,189.052 136.619,198.6 136.885,203.802C137.172,209.427 133.74,216.837 133.452,222.802C133.188,228.276 128.921,232.782 123.011,236.426C123.041,236.153 123.105,235.899 123.198,235.667C125.892,228.91 127.446,228.97 125.415,221.266C123.383,213.561 132.161,200.521 128.063,192.014C123.965,183.508 128.844,173.855 132.51,168.904L132.518,168.89Z" style="fill:rgb(112,56,19);"/>
        </g>
        <g transform="matrix(1,0,0,1,6.33499,-43.049)">
            <path d="M133.285,142.003L132.963,143.779C132.176,150.958 130.946,158.58 132.413,165.439L132.415,165.489C130.169,162.596 123.361,159.928 124.661,152.852C125.662,147.397 129.401,144.02 133.285,142.003Z" style="fill:rgb(112,56,19);"/>
        </g>
        <g transform="matrix(1,0,0,1,6.33499,-43.049)">
            <path d="M200.756,135.918C203.614,135.153 206.252,134.691 207.15,135.232C209.419,136.599 210.054,144.52 210.435,147.914C210.817,151.308 219.911,151.484 217.996,158.317C216.081,165.15 218.813,163.8 219.269,166.985C219.726,170.171 223.369,179.24 219.808,182.424C216.247,185.609 217.443,186.052 218.131,192.857C218.82,199.663 219.012,201.822 212.679,212.708C206.553,223.236 217.252,230.606 223.223,238.959C215.498,236.693 205.673,230.404 204.283,221.863C203.279,215.701 207.633,210.163 215.589,205.389C211.01,205.833 212.63,183.285 215.028,182.775C215.028,182.775 209.678,164.913 212.887,160.219C208.32,154.972 203.119,152.985 200.802,136.153L200.756,135.918Z" style="fill:rgb(112,56,19);"/>
        </g>
        <g transform="matrix(1,0,0,1,6.33499,-43.049)">
            <path d="M231.768,162.037C232.133,165.217 231.911,168.391 231.789,171.567C246.173,174.791 240.698,205.833 236.442,204.995C248.031,213.312 245.919,217.258 242.672,227.902C254.815,232.994 256.331,238.257 253.017,243.598L247.407,245.216L242.398,243.184C240.309,237.248 236.19,237.343 231.098,234.063C224.828,230.025 222.206,219.556 227.57,211.524C232.933,203.493 240.54,188.583 230.435,176.66C220.602,165.057 230.688,169.397 231.768,162.037Z" style="fill:rgb(164,116,26);"/>
        </g>
        <g transform="matrix(1,0,0,1,6.33499,-43.049)">
            <path d="M215.95,123.312C223.413,131.069 225.731,139.113 223.961,147.384C227.64,150.685 229.673,153.963 230.728,157.242C227.602,152.769 218.979,151.57 217.505,146.986C216.345,143.377 215.554,131.723 215.95,123.312Z" style="fill:rgb(164,116,26);"/>
        </g>
        <g transform="matrix(1,0,0,1,6.33499,-43.049)">
            <path d="M123.234,122.513C125.312,125.229 127.957,128.411 123.097,130.991C116.649,134.413 113.41,143.065 115.341,150.527C117.273,157.989 124.095,162.992 117.003,168.099C109.91,173.207 106.104,171.17 111.521,176.693C116.939,182.217 110.816,189.783 110.149,196.133C109.483,202.482 117.793,203.331 114.937,212.629C112.081,221.928 110.003,215.085 105.269,224.579C100.535,234.072 101.655,232.484 102.287,239.575C102.461,241.527 102.376,243.394 102.043,245.161C94.641,247.41 88.215,248.752 85.902,249.372C80.085,250.933 93.84,233.431 93.84,233.431C91.061,225.46 91.561,218.844 98.51,214.914C97.076,214.575 96.544,195.627 107.387,190.365C106.173,184.422 106.718,179.917 110.737,178.254C98.554,164.761 100.912,155.163 110.919,147.613C110.001,137.511 110.517,129.419 116.242,128.638C116.889,124.982 118.865,122.59 123.234,122.513Z" style="fill:rgb(184,136,39);"/>
        </g>
        <g transform="matrix(1,0,0,1,6.33499,-43.049)">
            <path d="M98.51,214.914C98.56,214.933 98.612,214.925 98.664,214.89C98.717,214.855 98.77,214.794 98.824,214.706L98.51,214.914Z" style="fill:rgb(131,64,11);"/>
        </g>
        <g transform="matrix(1,0,0,1,6.33499,-43.049)">
            <path d="M213.975,131.445C214.531,142.088 209.2,143.209 212.415,148.29C215.63,153.371 220.621,150.738 218.423,160.015C216.225,169.292 214.596,173.253 220.479,180.445C226.363,187.637 227.835,186.477 223.133,197.09C218.431,207.702 220.559,209.09 223.834,215.468C227.109,221.845 228.235,224.02 227.514,229.703C226.792,235.387 230.987,225.768 225.563,216.312C220.14,206.857 219.684,205.837 225.239,195.585C230.794,185.334 228.76,186.785 223.584,179.309C218.407,171.832 221.147,169.13 221.814,159.533C222.482,149.936 216.717,149.321 217.059,142.031C217.401,134.741 221.431,132.411 215.889,126.272C210.348,120.132 213.026,119.713 202.819,119.288C192.612,118.863 193.186,123.823 193.157,125.545C193.127,127.268 197.518,125.523 202.223,128.317C206.928,131.111 213.794,127.976 213.975,131.445Z" style="fill:rgb(153,75,24);"/>
        </g>
        <g transform="matrix(1,0,0,1,6.33499,-43.049)">
            <path d="M215.476,124.173C220.062,125.868 220.559,129.627 224.128,130.511C227.698,131.395 231.211,130.619 234.264,133.024C237.317,135.429 240.548,142.405 240.548,146.031C240.548,149.657 234.99,155.424 237.365,159.249C239.741,163.073 245.237,166.265 245.183,170.865C245.129,175.464 244.731,178.168 241.03,182.098C237.33,186.027 234.593,187.161 234.593,187.161C234.593,187.161 238.513,182.662 240.636,179.415C242.758,176.167 244.584,169.96 239.23,166.042C233.876,162.124 233.841,154.67 235.229,153.289C241.159,147.384 238.67,133.355 226.253,133.747C225.246,133.779 223.366,133.088 221.098,131.464C216.973,128.51 210.891,122.478 215.476,124.173Z" style="fill:rgb(181,143,65);"/>
        </g>
        <g transform="matrix(1,0,0,1,6.33499,-43.049)">
            <path d="M139.936,109.767C134.2,105.631 124.168,112.445 123.996,115.683C123.996,115.683 113.59,115.527 111.012,119.388C107.16,125.155 111.286,132.16 107.101,131.487C97.074,129.874 92.522,141.44 95.371,150.583C97.577,157.662 91.567,165.913 92.692,173.579C92.34,164.882 100.234,157.557 97.213,150.936C92.952,141.599 100.781,133.413 110.3,133.086C111.998,133.028 106.411,114.922 125.27,117.742C124.411,111.131 141.323,109.498 142.523,113.928C142.754,114.783 141.96,111.227 139.936,109.767Z" style="fill:rgb(181,143,65);"/>
        </g>
        <g transform="matrix(1,0,0,1,6.33499,-43.049)">
            <path d="M121.82,157.427C126.072,167.706 126.516,170.272 122.333,176.518C118.15,182.763 111.12,187.139 118.719,192.451C126.318,197.763 133.462,203.581 127.813,208.265C122.164,212.949 114.224,212.916 115.688,220.437C117.153,227.958 119.221,217.228 119.221,217.228C119.221,217.228 129.344,215.635 130.716,212.018C132.088,208.401 134.915,200.701 125.639,191.646C116.363,182.59 122.387,187.976 123.984,181.062C125.887,172.827 130.196,166.462 125.118,155.937C121.769,148.997 133.777,133.761 138.454,133.025C145.705,131.883 138.558,125.999 125.015,138.174C120.148,142.549 119.311,151.359 121.82,157.427Z" style="fill:rgb(165,85,22);"/>
        </g>
        <g transform="matrix(1,0,0,1,6.33499,-43.049)">
            <path d="M165.32,118.267C163.94,115.738 162.461,113.101 158.106,110.029C153.752,106.956 152.03,106.423 147.074,106.159C142.119,105.895 141.902,106.801 139.907,107.935C137.912,109.07 146.624,105.659 147.776,108.912C148.928,112.165 148.798,119.073 151.677,121.265C154.555,123.458 166.701,120.795 165.32,118.267Z" style="fill:rgb(177,101,40);"/>
        </g>
        <g transform="matrix(1,0,0,1,6.33499,-43.049)">
            <path d="M182.982,119.498C183.65,116.849 182.79,116.277 186.739,112.88C190.689,109.482 190.874,109.467 191.981,107.39C193.088,105.313 193.204,103.712 195.77,106.57C198.335,109.428 196.772,104.592 194.898,103.409C193.025,102.227 191.814,100.598 188.206,103.885C184.598,107.172 180.684,105.86 180.122,113.158C179.561,120.456 180.519,124.276 180.519,124.276C180.519,124.276 182.314,122.147 182.982,119.498Z" style="fill:rgb(109,47,10);"/>
        </g>
        <g transform="matrix(1,0,0,1,6.33499,-43.049)">
            <path d="M170.838,114.873C168.019,110.462 167.985,108.82 169.796,105.278C171.607,101.736 169.652,96.438 167.241,95.095C164.83,93.752 164.449,94.954 161.641,96.778C158.834,98.603 163.285,101.884 156.247,100.858C149.209,99.831 148.463,100.546 148.463,100.546C151.179,100.364 153.81,100.725 156.317,101.88C156.317,101.88 161.972,101.556 162.505,100.635C163.037,99.714 167.635,101.227 164.32,107.613C161.005,113.999 162.784,115.312 164.98,119.721C167.175,124.131 173.274,124.415 173.274,124.415C173.274,124.415 173.658,119.283 170.838,114.873Z" style="fill:rgb(165,85,22);"/>
        </g>
        <g transform="matrix(1,0,0,1,6.33499,-43.049)">
            <path d="M242.83,341.684L94.642,341.684C94.642,341.684 93.933,337.414 93.992,332.684C94.05,327.954 91.296,325.433 84.468,313.248C83.131,310.863 80.325,288.487 74.952,284.954C70.424,281.977 88.436,340.98 84.468,339.646C80.431,338.288 72.759,301.318 71.242,288.387C69.724,275.455 70.302,265.902 70.302,265.902C70.302,265.902 76.907,243.782 67.537,270.561C59.384,293.862 78.237,332.135 83.275,341.684L47.629,341.684L47.629,300.639C47.629,300.639 64.812,263.688 70.968,256.102C75.906,250.018 128.282,226.873 130.079,226.04C131.876,225.206 134.674,217.348 134.674,217.348C134.674,217.348 133.835,222.772 136.192,226.569C138.549,230.367 156.236,255.29 157.335,256.736C158.434,258.182 174.44,264.998 173.267,269.475C172.095,273.952 188.902,245.767 188.902,245.767L192.707,233.88L193.392,232.742C192.351,241.809 191.546,249.839 190.923,249.502C190.449,249.245 192.189,246.735 190.712,245.967C188.361,244.746 188.518,250.518 188.132,251.791C187.07,255.301 188.134,253.935 181.872,260.168C177.008,265.01 171.267,278.821 169.557,281.304L169.155,281.694C169.228,281.65 169.301,281.607 169.374,281.563L169.557,281.304C174.003,277.301 178.779,268.557 184.276,263.453C187.37,260.579 185.702,259.89 192.096,260.786C195.186,261.219 195.663,255.473 199.372,249.621C203.787,242.656 209.536,234.589 210.703,231.033C223.258,234.187 261.67,244.358 265.978,251.107C266.908,252.563 268.373,255.913 270.105,260.443C268.172,256.714 266.568,255.204 265.511,254.173C263.31,252.026 263.118,253.473 263.351,257.319C263.512,259.984 266.526,264.899 267.336,266.502C273.535,278.771 271.288,330.35 263.007,333.82C258.346,335.774 257.467,334.597 260.076,320.854C262.686,307.112 268.315,306.061 269.056,300.608C269.524,297.164 264.785,299.626 263.921,300.608C262.338,302.406 253.732,331.059 252.896,324.476C252.201,319.008 256.144,315.193 258.276,304.763C260.548,293.651 258.295,297.27 255.959,298.757C253.551,300.289 257.298,269.683 256.866,271.689C256.434,273.695 249.502,299.009 250.698,308.744C251.894,318.478 248.605,322.523 246.042,326.998C243.479,331.474 246.276,330.073 247.125,333.014C247.973,335.955 242.83,341.684 242.83,341.684Z" style="fill:rgb(103,110,136);"/>
        </g>
        <g transform="matrix(1,0,0,1,6.33499,-43.049)">
            <path d="M274.947,273.328C282.956,295.452 292.773,325.572 292.773,325.572L292.773,341.684L268.871,341.684C272.707,339.684 275.726,337.009 276.735,333.495C280.22,321.359 285.436,307.87 274.947,273.328Z" style="fill:rgb(103,110,136);"/>
        </g>
        <g transform="matrix(1,0,0,1,6.33499,-43.049)">
            <path d="M133.41,243.388C136.349,247.771 144.908,257.46 146.095,258.775C147.282,260.09 148.433,264.568 151.341,261.478C154.249,258.388 153.856,257.9 151.667,256.145C149.478,254.391 149.042,249.497 150.971,248.977C152.9,248.457 151.409,252.551 152.657,253.929C153.904,255.306 156.086,256.754 157.708,258.939C159.33,261.125 163.306,268.501 163.261,270.71C163.215,272.919 157.892,263.411 155.118,263.718C152.344,264.025 145.842,264.491 141.787,258.465C137.733,252.44 130.47,239.004 133.41,243.388Z" style="fill:rgb(29,29,35);"/>
        </g>
        <g transform="matrix(1,0,0,1,6.33499,-43.049)">
            <path d="M129.785,230.595C129.785,230.595 129.813,243.145 132.727,248.242C135.641,253.34 132.55,254.393 130.235,251.201C127.92,248.009 124.104,242.332 124.634,239.063C125.384,234.438 129.073,228.604 129.785,230.595Z" style="fill:rgb(29,29,35);"/>
        </g>
        <g transform="matrix(1,0,0,1,6.33499,-43.049)">
            <path d="M193.392,232.742C195.211,229.7 199.745,221.109 197.648,214.923C195.057,207.279 206.759,230.036 206.759,230.036L210.703,231.033C209.536,234.589 203.787,242.656 199.372,249.621C195.663,255.473 195.186,261.219 192.096,260.786C185.702,259.89 187.37,260.579 184.276,263.453C178.779,268.557 174.003,277.301 169.557,281.304L169.374,281.563C169.301,281.607 169.228,281.65 169.155,281.694L169.557,281.304C171.267,278.821 177.008,265.01 181.872,260.168C188.134,253.935 187.07,255.301 188.132,251.791C188.518,250.518 188.361,244.746 190.712,245.967C192.189,246.735 190.449,249.245 190.923,249.502C191.546,249.839 192.351,241.809 193.392,232.742Z" style="fill:rgb(29,29,35);"/>
        </g>
        <g transform="matrix(1,0,0,1,6.33499,-43.049)">
            <path d="M270.105,260.443C271.312,262.751 272.642,265.914 274.049,270.342L274.947,273.328L272.341,266.152L270.105,260.443Z" style="fill:rgb(29,29,35);"/>
        </g>
        <g transform="matrix(1,0,0,1,6.33499,-43.049)">
            <path d="M268.871,341.684L242.83,341.684C242.83,341.684 247.973,335.955 247.125,333.014C246.276,330.073 243.479,331.474 246.042,326.998C248.605,322.523 251.894,318.478 250.698,308.744C249.502,299.009 256.434,273.695 256.866,271.689C257.298,269.683 253.551,300.289 255.959,298.757C258.295,297.27 260.548,293.651 258.276,304.763C256.144,315.193 252.201,319.008 252.896,324.476C253.732,331.059 262.338,302.406 263.921,300.608C264.785,299.626 269.524,297.164 269.056,300.608C268.315,306.061 262.686,307.112 260.076,320.854C257.467,334.597 258.346,335.774 263.007,333.82C271.288,330.35 273.535,278.771 267.336,266.502C266.526,264.899 263.512,259.984 263.351,257.319C263.118,253.473 263.31,252.026 265.511,254.173C266.568,255.204 268.172,256.714 270.105,260.443L272.341,266.152L274.947,273.328C285.436,307.87 280.22,321.359 276.735,333.495C275.726,337.009 272.707,339.684 268.871,341.684Z" style="fill:rgb(29,29,35);"/>
        </g>
        <g transform="matrix(1,0,0,1,6.33499,-43.049)">
            <path d="M83.275,341.684C78.237,332.135 59.384,293.862 67.537,270.561C76.907,243.782 70.302,265.902 70.302,265.902C70.302,265.902 69.724,275.455 71.242,288.387C72.759,301.318 80.431,338.288 84.468,339.646C88.436,340.98 70.424,281.977 74.952,284.954C80.325,288.487 83.131,310.863 84.468,313.248C91.296,325.433 94.05,327.954 93.992,332.684C93.933,337.414 94.642,341.684 94.642,341.684L83.275,341.684Z" style="fill:rgb(29,29,35);"/>
        </g>
        <g transform="matrix(1,0,0,1,6.33499,-43.049)">
            <path d="M134.8,165.674C134.8,165.674 136.932,185.544 139.06,192.593C142.929,205.409 146.507,208.723 154.327,213.353C159.924,216.667 169.225,219.99 181.613,215.833C193.733,211.767 197.65,194.973 200.057,182.2C200.65,179.047 204.339,151.16 203.131,141.584C203.048,140.92 201.062,126.071 191.16,122.878C181.258,119.684 176.475,117.79 168.488,117.742C160.247,117.694 145.634,119.95 142.687,123.199C132.872,134.02 132.011,145.868 134.8,165.674Z" style="fill:rgb(197,153,140);"/>
        </g>
        <g transform="matrix(1,0,0,1,6.33499,-43.049)">
            <path d="M133.286,149.787C133.773,149.203 134.106,149.961 135.385,149.349C137.717,148.233 141.442,146.908 143.268,146.622C153.334,145.049 157.113,145.792 162.684,148.803C165.94,147.959 169.8,148.033 172.856,148.808C175.152,146.437 178.741,145.808 182.125,145.319C185.453,144.838 192.313,144.756 197.544,146.544C198.499,146.871 199.51,147.054 200.025,147.487C200.617,147.983 202.456,147.625 202.638,147.925C203.243,148.924 203.055,150.017 202.761,151.076C202.573,151.754 201.591,150.769 200.941,152.146C200.272,153.561 200.122,160.262 198.715,162.659C197.415,164.874 196.217,167.054 193.076,168.165C191.207,168.825 188.599,169.029 184.998,169.108C179.641,169.225 174.664,165.886 172.939,161.057C171.567,157.213 170.922,154.423 171.241,152.767C171.32,152.354 171.773,151.477 171.719,151.19C171.507,150.052 163.484,150.422 164.214,151.808C164.294,151.96 164.692,152.81 164.646,153.127C164.299,155.477 164.786,160.192 160.472,165.779C158.289,168.607 155.051,169.539 151.653,169.973C148.818,170.336 145.022,170.246 142.691,169.357C139.801,168.255 138.595,166.183 137.274,163.76C136.559,162.448 135.483,157.879 135.461,154.276C135.458,153.933 135.613,153.412 135.351,153.384C134.679,153.313 134.249,153.553 132.699,152.688C132.699,152.688 132.799,150.37 133.286,149.787ZM143.144,148.017C145.331,147.164 150.692,146.752 155.273,147.641C158.196,148.209 161.007,149.542 161.809,150.862C162.397,151.83 163.834,155.769 160.708,163.027C157.622,170.189 149.579,169.125 146.761,168.992C143.798,168.853 141.486,167.735 140.004,165.761C136.898,161.62 136.814,154.786 137.635,152.848C138.902,149.856 140.385,149.093 143.144,148.017ZM173.843,150.304C174.398,149.487 176.637,146.827 181.874,146.473C185.438,146.232 190.032,146.093 193.469,147.217C196.18,148.104 198.159,150.048 198.428,151.47C199.283,155.998 199.205,162.685 194.045,166.284C191.019,168.394 182.123,170.159 176.512,164.396C173.402,161.201 171.462,153.813 173.843,150.304Z"/>
        </g>
    </g>
</svg>
