<?xml version="1.0" encoding="UTF-8" standalone="no"?>
<!DOCTYPE svg PUBLIC "-//W3C//DTD SVG 1.1//EN" "http://www.w3.org/Graphics/SVG/1.1/DTD/svg11.dtd">
<svg width="100%" height="100%" viewBox="0 0 430 430" version="1.1" xmlns="http://www.w3.org/2000/svg" xmlns:xlink="http://www.w3.org/1999/xlink" xml:space="preserve" xmlns:serif="http://www.serif.com/" style="fill-rule:evenodd;clip-rule:evenodd;stroke-linejoin:round;stroke-miterlimit:2;">
    <g transform="matrix(2.66667,0,0,2.66667,-123.258,-125.902)">
        <g transform="matrix(1.00248,0,0,1.00248,-6.66384,8.67675)">
            <rect x="52.755" y="38.441" width="160.602" height="160.602" style="fill:white;"/>
        </g>
        <g id="python.svg" transform="matrix(0.20125,0,0,0.20125,126.722,127.713)">
            <g transform="matrix(1,0,0,1,-400,-400)">
                <path d="M398.563,200C297.013,200 303.35,244.038 303.35,244.038L303.475,289.662L400.375,289.662L400.375,303.35L264.963,303.35C264.963,303.35 200,295.975 200,398.45C200,500.9 256.712,497.275 256.712,497.275L290.562,497.275L290.562,449.725C290.562,449.725 288.737,393.013 346.375,393.013L442.475,393.013C442.475,393.013 496.475,393.888 496.475,340.825L496.475,253.088C496.475,253.088 504.675,200 398.563,200ZM345.125,230.675C354.763,230.675 362.563,238.475 362.563,248.113C362.563,257.75 354.763,265.55 345.125,265.55C345.117,265.55 345.108,265.55 345.1,265.55C335.548,265.55 327.687,257.69 327.687,248.138C327.687,248.129 327.687,248.121 327.688,248.113C327.688,238.475 335.487,230.675 345.125,230.675Z" style="fill:url(#_Linear1);fill-rule:nonzero;"/>
                <path d="M401.438,597.913C502.988,597.913 496.65,553.875 496.65,553.875L496.525,508.25L399.625,508.25L399.625,494.563L535.025,494.563C535.025,494.563 600,501.938 600,399.475C600,297.013 543.288,300.65 543.288,300.65L509.438,300.65L509.438,348.188C509.438,348.188 511.263,404.9 453.625,404.9L357.525,404.9C357.525,404.9 303.525,404.025 303.525,457.087L303.525,544.825C303.525,544.825 295.325,597.913 401.438,597.913ZM454.875,567.238C454.867,567.238 454.858,567.238 454.85,567.238C445.298,567.238 437.437,559.377 437.437,549.825C437.437,549.817 437.437,549.808 437.437,549.8C437.437,540.175 445.238,532.375 454.875,532.375C464.513,532.375 472.313,540.162 472.313,549.8C472.313,559.45 464.513,567.238 454.875,567.238Z" style="fill:url(#_Linear2);fill-rule:nonzero;"/>
            </g>
        </g>
    </g>
    <defs>
        <linearGradient id="_Linear1" x1="0" y1="0" x2="1" y2="0" gradientUnits="userSpaceOnUse" gradientTransform="matrix(197.788,198.45,-198.45,197.788,238.438,234.775)"><stop offset="0" style="stop-color:rgb(56,126,184);stop-opacity:1"/><stop offset="1" style="stop-color:rgb(54,105,148);stop-opacity:1"/></linearGradient>
        <linearGradient id="_Linear2" x1="0" y1="0" x2="1" y2="0" gradientUnits="userSpaceOnUse" gradientTransform="matrix(212.425,203.512,-203.512,212.425,360.113,361.025)"><stop offset="0" style="stop-color:rgb(255,224,82);stop-opacity:1"/><stop offset="1" style="stop-color:rgb(255,195,49);stop-opacity:1"/></linearGradient>
    </defs>
</svg>
