<?xml version="1.0" encoding="UTF-8" standalone="no"?>
<!DOCTYPE svg PUBLIC "-//W3C//DTD SVG 1.1//EN" "http://www.w3.org/Graphics/SVG/1.1/DTD/svg11.dtd">
<svg width="100%" height="100%" viewBox="0 0 2436 2433" version="1.1" xmlns="http://www.w3.org/2000/svg" xmlns:xlink="http://www.w3.org/1999/xlink" xml:space="preserve" xmlns:serif="http://www.serif.com/" style="fill-rule:evenodd;clip-rule:evenodd;stroke-linejoin:round;stroke-miterlimit:2;">
    <g transform="matrix(1,0,0,1,-32.5444,-33.686)">
        <path d="M941.865,72.09C1256.97,-8.721 1605.23,38.369 1883.13,209.883C2233.14,419.189 2461.63,815.117 2467.44,1222.68C2480.23,1634.3 2265.69,2042.44 1920.93,2266.28C1537.21,2524.41 1006.4,2534.31 614.531,2288.95C215.117,2050.58 -18.027,1569.77 41.865,1108.13C90.107,620.342 466.865,190.117 941.865,72.1L941.865,72.09Z" style="fill:rgb(1,1,1);fill-rule:nonzero;"/>
        <path d="M893.604,271.514C1488.95,33.135 2219.19,473.252 2280.81,1111.63C2376.75,1686.05 1900,2269.77 1318.02,2286.63C764.531,2341.87 229.648,1872.67 213.955,1316.87C172.676,866.865 469.189,420.352 893.604,271.514Z" style="fill:white;fill-rule:nonzero;"/>
        <path d="M953.486,1188.38C1220.35,970.352 1481.4,744.766 1754.07,533.135C1611.05,752.91 1463.95,969.766 1320.93,1189.53C1198.25,1190.12 1075.59,1190.12 953.486,1188.37L953.486,1188.38ZM1179.07,1309.88C1302.32,1309.88 1425,1309.88 1547.68,1311.63C1279.07,1528.49 1019.19,1755.81 745.928,1966.87C888.955,1747.09 1036.05,1529.66 1179.07,1309.88Z" style="fill:rgb(1,1,1);fill-rule:nonzero;"/>
    </g>
</svg>
