<?xml version="1.0" encoding="UTF-8" standalone="no"?>
<!DOCTYPE svg PUBLIC "-//W3C//DTD SVG 1.1//EN" "http://www.w3.org/Graphics/SVG/1.1/DTD/svg11.dtd">
<svg width="100%" height="100%" viewBox="0 0 430 430" version="1.1" xmlns="http://www.w3.org/2000/svg" xmlns:xlink="http://www.w3.org/1999/xlink" xml:space="preserve" xmlns:serif="http://www.serif.com/" style="fill-rule:evenodd;clip-rule:evenodd;stroke-linejoin:round;stroke-miterlimit:2;">
    <g transform="matrix(2.66667,0,0,2.66667,-123.258,-125.902)">
        <g transform="matrix(1.00248,0,0,1.00248,-6.66384,8.67675)">
            <rect x="52.755" y="38.441" width="160.602" height="160.602" style="fill:white;"/>
        </g>
        <g id="Oracle_SQL_Developer_logo.svg" transform="matrix(0.31671,0,0,0.31671,126.722,127.713)">
            <g transform="matrix(1,0,0,1,-148.419,-168.443)">
                <g id="XMLID_5_">
                    <path id="XMLID_14_" d="M30.891,242.903C12.578,233.646 1.509,221.571 1.509,208.289L1.509,277.518C1.509,298.347 28.979,316.459 69.128,325.213L69.128,255.984C54.437,252.764 41.457,248.337 30.891,242.903Z" style="fill:rgb(185,200,208);fill-rule:nonzero;"/>
                    <path id="XMLID_10_" d="M39.344,169.851C36.023,168.443 32.803,167.034 29.885,165.424C12.276,156.167 1.61,144.293 1.61,131.313L1.61,199.434C1.61,200.944 1.811,202.352 2.012,203.862C4.629,217.546 18.917,229.722 40.652,238.476C49.104,241.897 58.663,244.815 69.128,247.13L69.128,178.907C58.16,176.593 48.098,173.474 39.344,169.851Z" style="fill:rgb(185,200,208);fill-rule:nonzero;"/>
                    <path id="XMLID_3_" d="M124.068,0C56.349,0 1.509,23.848 1.509,53.33C1.509,66.512 12.578,78.586 30.791,87.944C33.809,89.454 37.029,90.963 40.45,92.372C48.903,95.793 58.562,98.711 69.027,101.025L92.573,79.794L103.44,69.933L121.754,53.33L175.285,4.83C159.688,1.711 142.381,0 124.068,0Z" style="fill:rgb(142,165,175);fill-rule:nonzero;"/>
                    <path id="XMLID_4_" d="M40.551,92.372C37.13,90.963 33.91,89.554 30.891,87.944C12.578,78.586 1.509,66.512 1.509,53.33L1.509,122.458C1.509,123.967 1.711,125.376 1.912,126.885C4.427,140.268 18.213,152.242 39.243,160.996C43.067,162.606 46.991,164.015 51.217,165.424C56.852,167.235 62.789,168.845 69.027,170.153L69.027,100.925C58.663,98.711 49.003,95.793 40.551,92.372Z" style="fill:rgb(185,200,208);fill-rule:nonzero;"/>
                    <path id="XMLID_9_" d="M144.997,277.618C143.79,272.285 143.086,266.751 142.985,261.116C136.847,261.519 130.508,261.72 123.967,261.72C113.905,261.72 104.145,261.217 94.787,260.21C85.731,259.204 77.178,257.896 69.027,256.085L69.027,325.313C70.335,325.615 71.643,325.917 73.052,326.118C88.548,329.238 105.855,330.948 123.967,330.948C143.79,330.948 162.506,328.835 179.109,325.213C162.204,314.647 149.727,297.642 144.997,277.618Z" style="fill:rgb(171,184,192);fill-rule:nonzero;"/>
                    <path id="XMLID_2_" d="M178.807,5.635C177.599,5.333 176.492,5.132 175.285,4.931L121.754,53.33L103.44,69.933L92.573,79.794L69.128,101.025C85.63,104.648 104.346,106.66 124.068,106.66C131.514,106.66 138.759,106.358 145.802,105.855C169.449,104.044 190.781,99.214 207.685,92.372C211.107,90.963 214.326,89.554 217.345,87.944C235.558,78.586 246.526,66.512 246.526,53.33C246.526,32.401 218.955,14.389 178.807,5.635Z" style="fill:rgb(129,152,159);fill-rule:nonzero;"/>
                    <path id="XMLID_7_" d="M217.245,87.944C214.226,89.454 211.006,90.963 207.585,92.372C190.68,99.214 169.449,104.044 145.702,105.855C138.658,106.358 131.413,106.66 123.967,106.66C104.245,106.66 85.529,104.648 69.027,101.025L69.027,170.254C85.127,173.776 103.34,175.788 122.559,175.889L123.967,175.889C151.236,175.889 176.392,171.964 196.718,165.424C200.944,164.015 204.969,162.606 208.692,160.996C229.621,152.242 243.507,140.268 246.023,126.885C246.325,125.477 246.425,123.967 246.425,122.458L246.425,53.33C246.526,66.512 235.558,78.586 217.245,87.944Z" style="fill:rgb(171,184,192);fill-rule:nonzero;"/>
                    <g id="XMLID_1_">
                        <path id="XMLID_8_" d="M246.123,126.885C243.608,140.268 229.822,152.242 208.792,160.996C204.969,162.606 201.044,164.015 196.818,165.424C176.492,171.964 151.337,175.889 124.068,175.889L122.659,175.889C103.44,175.788 85.227,173.776 69.128,170.254C62.889,168.845 56.952,167.336 51.318,165.524C47.091,164.116 43.067,162.707 39.344,161.097C18.313,152.242 4.528,140.268 2.012,126.885C1.711,125.477 1.61,123.967 1.61,122.458L1.61,131.313C1.61,144.293 12.276,156.167 29.885,165.424C32.803,166.933 36.023,168.443 39.344,169.851C48.098,173.474 58.16,176.593 69.128,179.008C84.423,182.328 101.629,184.341 119.741,184.643L124.068,184.643C156.972,184.643 186.756,179.008 208.792,169.851C212.113,168.443 215.333,167.034 218.251,165.424C235.86,156.167 246.526,144.293 246.526,131.313L246.526,122.458C246.526,123.967 246.425,125.477 246.123,126.885Z" style="fill:rgb(129,152,159);fill-rule:nonzero;"/>
                        <path id="XMLID_19_" d="M246.123,203.862C243.708,216.641 231.03,228.112 211.61,236.765C210.302,237.369 208.893,237.973 207.484,238.476C204.465,239.683 201.447,240.79 198.126,241.897C185.649,246.023 171.26,249.142 155.663,250.953C151.639,251.456 147.513,251.758 143.287,252.06C136.948,252.463 130.508,252.764 123.967,252.764C114.911,252.764 106.056,252.362 97.604,251.557C87.542,250.551 77.983,249.142 69.027,247.13C58.562,244.815 49.003,241.897 40.551,238.476C18.917,229.722 4.528,217.546 2.012,203.862C1.711,202.453 1.61,200.944 1.61,199.434L1.61,208.289C1.61,221.471 12.678,233.545 30.992,242.903C41.557,248.236 54.538,252.764 69.228,255.984C77.379,257.796 85.932,259.104 94.988,260.11C104.346,261.116 114.106,261.619 124.168,261.619C130.608,261.619 136.948,261.418 143.186,261.015C147.312,260.714 151.337,260.412 155.261,259.909C171.059,258.097 185.649,254.978 198.327,250.752C205.27,248.438 211.71,245.821 217.345,242.903C218.251,242.4 219.156,241.897 220.062,241.495C236.665,232.439 246.626,220.867 246.626,208.289L246.626,199.535C246.626,200.038 246.526,200.441 246.526,200.944C246.425,201.95 246.325,202.956 246.123,203.862Z" style="fill:rgb(129,152,159);fill-rule:nonzero;"/>
                    </g>
                    <path id="XMLID_16_" d="M218.251,165.424C215.333,166.933 212.113,168.443 208.792,169.851C186.756,179.008 156.972,184.643 124.068,184.643L119.741,184.643C101.528,184.341 84.423,182.328 69.128,179.008L69.128,247.23C78.083,249.142 87.642,250.651 97.705,251.658C106.157,252.463 115.012,252.865 124.068,252.865C130.608,252.865 137.149,252.664 143.387,252.161C147.614,251.859 151.739,251.456 155.764,251.054C171.361,249.243 185.75,246.123 198.227,241.998C201.447,240.891 204.566,239.784 207.585,238.577C208.993,237.973 210.302,237.47 211.71,236.866C231.131,228.212 243.809,216.741 246.224,203.962C246.425,202.956 246.526,201.95 246.626,200.944C246.626,200.441 246.727,200.038 246.727,199.535L246.727,131.313C246.526,144.293 235.96,156.167 218.251,165.424Z" style="fill:rgb(171,184,192);fill-rule:nonzero;"/>
                    <g id="XMLID_54_">
                        <circle id="XMLID_85_" cx="219.861" cy="259.909" r="76.876" style="fill:rgb(229,233,236);"/>
                        <g id="XMLID_78_">
                            <path id="XMLID_82_" d="M219.861,198.931C254.978,198.931 283.555,226.904 284.561,261.82L284.561,259.909C284.561,224.087 255.582,195.108 219.76,195.108C183.938,195.108 154.959,224.087 154.959,259.909L154.959,261.82C156.167,227.005 184.743,198.931 219.861,198.931Z" style="fill:rgb(60,148,67);fill-rule:nonzero;"/>
                            <path id="XMLID_79_" d="M219.861,324.71C254.978,324.71 283.555,296.737 284.561,261.82C283.555,226.904 254.978,198.931 219.861,198.931C184.743,198.931 156.167,226.904 155.16,261.82C156.167,296.737 184.743,324.71 219.861,324.71Z" style="fill:rgb(69,172,78);fill-rule:nonzero;"/>
                        </g>
                        <path id="XMLID_67_" d="M252.966,263.129L198.126,232.439L198.126,293.818L252.966,263.129Z" style="fill:rgb(60,148,67);fill-rule:nonzero;"/>
                        <path id="XMLID_58_" d="M252.966,259.909L198.126,229.219L198.126,290.699L252.966,259.909Z" style="fill:white;fill-rule:nonzero;"/>
                    </g>
                </g>
            </g>
        </g>
    </g>
</svg>
