<?xml version="1.0" encoding="UTF-8" standalone="no"?>
<!DOCTYPE svg PUBLIC "-//W3C//DTD SVG 1.1//EN" "http://www.w3.org/Graphics/SVG/1.1/DTD/svg11.dtd">
<svg width="100%" height="100%" viewBox="0 0 179 179" version="1.1" xmlns="http://www.w3.org/2000/svg" xmlns:xlink="http://www.w3.org/1999/xlink" xml:space="preserve" xmlns:serif="http://www.serif.com/" style="fill-rule:evenodd;clip-rule:evenodd;stroke-linejoin:round;stroke-miterlimit:2;">
    <g transform="matrix(1,0,0,1,-49.7714,-38.3906)">
        <g transform="matrix(0.930032,0,0,0.930032,3.81225,-12.2011)">
            <rect x="49.417" y="54.398" width="192.227" height="192.227" style="fill:rgb(8,40,53);"/>
        </g>
        <g transform="matrix(1,0,0,1,15.3057,0.106213)">
            <path d="M109.564,95.254L115.185,83.429L161.133,71.769L174.267,116.489L166.866,128L174.296,139.143L161.375,183.577L115.564,171.711L109.426,161.007L95.204,160.257L61.343,128L94.914,94.994L109.564,95.254ZM144.997,167.763L125.148,133.732L84.447,133.868L109.774,158.404L144.997,167.763ZM134.591,127.673L154.782,161.061L164.354,128L154.597,94.498L134.591,127.673ZM110.247,97.301L84.447,122.214L125.125,122.301L144.997,88.509L110.247,97.301Z" style="fill:white;"/>
        </g>
    </g>
</svg>
