<?xml version="1.0" encoding="UTF-8" standalone="no"?>
<!DOCTYPE svg PUBLIC "-//W3C//DTD SVG 1.1//EN" "http://www.w3.org/Graphics/SVG/1.1/DTD/svg11.dtd">
<svg width="100%" height="100%" viewBox="0 0 5402 7184" version="1.1" xmlns="http://www.w3.org/2000/svg" xmlns:xlink="http://www.w3.org/1999/xlink" xml:space="preserve" xmlns:serif="http://www.serif.com/" style="fill-rule:evenodd;clip-rule:evenodd;stroke-linejoin:round;stroke-miterlimit:2;">
    <g transform="matrix(1,0,0,1,-2145.18,-1569.83)">
        <g transform="matrix(1,0,0,1,-23.0079,24.137)">
            <path d="M2182.7,2964.81C2247.41,3031.2 2507.14,3295.78 2521.01,3280.48C2548.64,3250.01 2620.16,3213.44 2620.16,3213.44L2626.5,3211.37C2761.07,3170.1 2983.33,3270.48 2665.92,3505.59C2421.33,3686.77 2338.37,3535.14 2441.87,3384.41L2168.19,2949.89L2182.7,2964.81Z" style="fill:rgb(101,102,89);"/>
        </g>
        <path d="M2509.88,3608.81C3384.62,4419.47 4397.63,5384.27 5237.45,6228.47C5766.72,6760.5 6418.74,7629.74 6919.6,8311.87C7023.38,8453.21 6976.52,8631.78 7080.5,8747.49C7145.82,8820.18 7611.55,8209.28 7539.28,8143.49C6008.25,6749.73 4307.05,4932.08 2761.34,3353.11C2692.97,3283.27 2440.77,3539.7 2509.88,3608.81Z" style="fill:rgb(62,47,27);"/>
        <path d="M3399.89,1769.38C3971.52,1840.02 4928.29,2152.7 5108.38,3528.98C4634.22,3516.65 3530.25,3534.74 3096.69,3939.27C2573.95,4427.02 2206.78,4463.16 2206.78,4463.16C2206.78,4463.16 2410.3,4101.69 2736.3,3627.06C2973.24,3282.09 3278.62,2215.57 3399.89,1769.38Z" style="fill:rgb(132,133,119);"/>
        <path d="M3407.2,4016.54L3232.84,3836.86L2692.45,3691.3L2532.65,3932.24L3407.2,4016.54Z" style="fill:rgb(111,67,46);"/>
        <path d="M2977.82,4044.93L3176.11,4231.17L2931.12,3233.85L2747.05,3611L2977.82,4044.93Z" style="fill:rgb(157,100,74);"/>
        <path d="M6695.13,8067.46C6623.26,7976.78 6540.9,7869.42 6455.97,7756.9C6517.23,7605.23 6582.94,7435.26 6640.25,7271.06C6734.5,7364.07 6829.5,7458.14 6918.27,7546.05C6855.7,7730.76 6773.15,7912.96 6695.13,8067.46Z" style="fill:rgb(157,100,74);"/>
        <path d="M6139.83,7331.89C5974.29,7106.91 5840.9,6922.53 5812.18,6884.38C5762.99,6819.05 5933.32,6620.86 5978.61,6641.37C6001.15,6651.57 6124.3,6767.08 6288.68,6926.45C6247.12,7047.02 6195.21,7191.68 6139.83,7331.89Z" style="fill:rgb(157,100,74);"/>
        <path d="M3231.49,3538.63C3541.1,3194.48 3670.92,2910.56 3657.58,2112.9C4336.68,2268.48 4652.9,2815.61 4794.5,3341.17C4794.5,3341.17 3907.71,3086.61 3231.49,3538.63Z" style="fill:rgb(101,102,89);"/>
        <path d="M3399.89,1769.38C3433.47,1645.82 3452.93,1569.83 3452.93,1569.83C4688.78,1702.11 5252.31,2411.89 5330.45,3538.63C5330.45,3538.63 5245.9,3532.51 5108.38,3528.98C4928.26,2152.79 3971.57,1840.06 3399.89,1769.38Z" style="fill:rgb(206,206,206);"/>
        <path d="M6918.27,7546.05C7116.33,7742.21 7283.56,7907.86 7343.02,7963.4C7391.38,8008.55 6987.7,8336.86 6931.2,8328.77C6907.23,8325.33 6816.01,8219.98 6695.13,8067.46C6773.15,7912.99 6855.72,7730.78 6918.27,7546.05Z" style="fill:rgb(111,67,46);"/>
        <path d="M6288.68,6926.45C6394.12,7028.67 6516.53,7148.93 6640.25,7271.06C6582.92,7435.33 6517.22,7605.28 6455.97,7756.9C6349.46,7615.81 6238.89,7466.61 6139.83,7331.89C6195.21,7191.67 6247.13,7047.01 6288.68,6926.45Z" style="fill:rgb(111,67,46);"/>
        <path d="M2585.55,3243.77C2564.14,3255.48 2518.72,3281.76 2498.01,3304.61C2482.15,3322.1 2145.18,2974.03 2145.18,2974.03L2597.16,3237.58L2585.55,3243.77Z" style="fill:rgb(132,133,119);"/>
    </g>
</svg>
