<?xml version="1.0" encoding="UTF-8" standalone="no"?>
<!DOCTYPE svg PUBLIC "-//W3C//DTD SVG 1.1//EN" "http://www.w3.org/Graphics/SVG/1.1/DTD/svg11.dtd">
<svg width="100%" height="100%" viewBox="0 0 4237 4591" version="1.1" xmlns="http://www.w3.org/2000/svg" xmlns:xlink="http://www.w3.org/1999/xlink" xml:space="preserve" xmlns:serif="http://www.serif.com/" style="fill-rule:evenodd;clip-rule:evenodd;stroke-linecap:round;stroke-linejoin:round;stroke-miterlimit:1.5;">
    <g transform="matrix(0.64,0,0,0.64,-686.585,-1457.9)">
        <path d="M2239.6,9166.71C2239.6,9114.58 2197.28,9072.25 2145.14,9072.25L1886.26,9072.25C1834.13,9072.25 1791.8,9114.58 1791.8,9166.71L1791.8,9355.62C1791.8,9407.75 1834.13,9450.07 1886.26,9450.07L2145.14,9450.07C2197.28,9450.07 2239.6,9407.75 2239.6,9355.62L2239.6,9166.71Z" style="fill:rgb(96,65,53);"/>
        <path d="M7021.73,9129.23C7021.73,9071.65 6974.98,9024.91 6917.41,9024.91L6701.81,9024.91C6644.24,9024.91 6597.49,9071.65 6597.49,9129.23L6597.49,9337.86C6597.49,9395.43 6644.24,9442.18 6701.81,9442.18L6917.41,9442.18C6974.98,9442.18 7021.73,9395.43 7021.73,9337.86L7021.73,9129.23Z" style="fill:rgb(96,65,53);"/>
        <path d="M3375.16,6193.95C3490.39,6287.31 3740.95,6319.48 4030.45,6336.08C3682.83,6560.12 4599.78,6426.3 5022.84,6612.08C5522.09,6831.32 4813.67,8138.31 5531.28,8155.47C5558.67,8156.13 5584.32,8152.7 5608.34,8145.57L5615.54,8147.34C5990.21,8231.26 6160.03,8311.76 6339.13,8707.54C6415.44,8876.18 3135.06,8937.63 3135.06,8937.63L2901.22,8812.06C3393.86,8579.25 3969.13,8340.6 4364.11,8281.2C4838.83,8209.81 5464.32,7044.49 4627.32,6806.43C4347.89,6726.95 3644.15,6543.94 3166.55,6525.62C3071.73,6466.76 2995.03,6393.47 2945.31,6299.63C2938.42,6286.63 2932.01,6273.41 2926.08,6259.94C3106.24,6266.16 3258.97,6238.05 3375.16,6193.95Z" style="fill:rgb(152,101,71);"/>
        <path d="M2880.41,5858.83C2960.94,5307.66 3551.12,4612.23 4514.68,4113.19C5532.29,3586.16 4575.23,3276.68 4529.09,2999.61C4477.5,2689.85 4849.03,2890.43 4999.73,3087.24C5105.67,3225.59 5180.15,3442.3 5200.42,3643.24C5136.91,3616.56 5089.61,3602.52 5087.4,3625.56C5054.38,3970.39 4832.27,4153.46 4876.19,4253C4241.38,4687.87 3215.08,5159.35 3275.27,5911.93C3133.72,5886.63 2977.8,5868.71 2880.41,5858.83Z" style="fill:rgb(152,101,71);"/>
        <g transform="matrix(1,0,0,1,-2.89075,-73.3473)">
            <path d="M7447.97,8814.74C7447.97,8730.88 7379.88,8662.8 7296.02,8662.8L1513.26,8662.8C1429.39,8662.8 1361.31,8730.88 1361.31,8814.74L1361.31,9078.21C1361.31,9162.07 1429.39,9230.16 1513.26,9230.16L7296.02,9230.16C7379.88,9230.16 7447.97,9162.07 7447.97,9078.21L7447.97,8814.74Z" style="fill:url(#_Linear1);"/>
        </g>
        <path d="M2880.41,5858.83C2977.78,5868.72 3133.68,5886.62 3275.27,5911.93C3280.38,5976.03 3293.42,6042.27 3315.28,6110.7C3325.55,6142.86 3346.03,6170.36 3375.16,6193.95C3258.95,6238.05 3106.23,6266.17 2926.08,6259.94C2873.45,6140.57 2859.06,6004.77 2880.41,5858.83Z" style="fill:rgb(96,65,53);stroke:black;stroke-width:1px;"/>
        <path d="M3166.55,6525.62C3644.15,6543.94 4347.89,6726.95 4627.32,6806.43C5464.32,7044.49 4838.83,8209.81 4364.11,8281.2C4041.12,8329.78 3597.57,8498.22 3177.22,8685.31C3083.54,8727.01 2895.98,8676.97 2806.2,8719.4L2410.82,8548.72C2410.82,8548.72 2631.6,8356.18 2956.63,8301C3559.94,8198.56 4470.34,8174.11 4627.46,7946.88C5552.52,6609.08 3866.62,6960.72 3166.55,6525.62Z" style="fill:rgb(96,65,53);"/>
        <g transform="matrix(1,0,0,1,-41.8733,-12.1321)">
            <path d="M1156.36,8479.16C2241.48,8447.26 6596.53,8445.93 7683.1,8483.07C7756.07,8485.56 7748.77,8790.76 7675.79,8792.9C7485.79,8798.49 7196.26,8802.41 6842.04,8804.89C5173.24,8816.54 2068.68,8796.02 1172.36,8765.38C1107.08,8763.15 1091.06,8481.08 1156.36,8479.16Z" style="fill:rgb(191,139,94);"/>
        </g>
        <path d="M4575.23,4443.2C4639.54,4765.14 4442.01,4773.67 5249.91,5013.61C6202.96,5296.66 5309.07,5506.58 6752.07,5595.5C6933.03,5606.65 7108.35,5608.97 7273.97,5602.95C7230.12,5737.87 7053.92,5869.89 6646.63,5968.32C5973.2,6131.06 5537.82,5890.09 5537.82,5890.09C5537.82,5890.09 5462.02,5940.76 5347.39,5999.76C4962.49,5223.18 3392.22,6139.67 2484.91,5597.9C2031.28,5327.03 2198.7,5009.98 2447.98,4776.05C2905.54,4750.14 3342.85,4864.83 3342.85,4864.83C3342.85,4864.83 3530.74,4491.84 4485.64,4445.59C4515.84,4444.12 4545.67,4443.34 4575.23,4443.2Z" style="fill:rgb(98,184,95);"/>
        <path d="M2447.98,4776.05C2198.7,5009.98 2031.28,5327.03 2484.91,5597.9C3392.22,6139.67 4962.49,5223.18 5347.39,5999.76C5189.79,6080.99 4958.81,6178.01 4750.51,6181.03C4282.02,6187.8 3987.12,5934.16 3987.12,5934.16C3987.12,5934.16 3255.94,6163.73 2651.4,6134.25C1923.33,6098.75 1311.03,5771.69 1484.57,5325.88C1640.08,4926.41 2051.64,4798.46 2447.98,4776.05Z" style="fill:rgb(64,136,61);"/>
        <path d="M2683.28,2956.44C3041.52,2422.96 4362.85,2656.6 4362.85,2656.6C4362.85,2656.6 4535.18,2478.99 4880.86,2367.1C4928.27,2623.48 5215.55,2996.68 6368.9,3238.62C6340.43,3264.25 6307.41,3289.1 6269.58,3313.02C6099.8,3420.35 5877.93,3478.86 5645.01,3507.17C5560.11,3439.69 5452.43,3371.09 5320.18,3301.85C4644.4,2948.05 4606.27,3491.49 3545.97,3437.79C3197.57,3420.15 2900.18,3134.54 2683.28,2956.44Z" style="fill:rgb(98,184,95);"/>
        <path d="M4575.23,4443.2C5527.82,4438.26 6095.92,5097.86 6095.92,5097.86C6095.92,5097.86 6656.57,4900.65 6992.55,5130.05C7165.3,5248 7330.9,5427.92 7273.97,5602.95C7108.35,5608.97 6933.03,5606.65 6752.07,5595.5C5309.07,5506.58 6202.96,5296.66 5249.91,5013.61C4442.01,4773.67 4639.54,4765.14 4575.23,4443.2Z" style="fill:rgb(114,212,132);"/>
        <path d="M4880.86,2367.1C5035,2317.15 5223.54,2280.3 5446.62,2278.04C6162.52,2270.79 6809.52,2842.68 6368.9,3238.62C5215.38,2996.66 4928.18,2623.42 4880.86,2367.1Z" style="fill:rgb(114,212,132);"/>
        <path d="M2683.28,2956.44C2900.18,3134.54 3178.22,3205.86 3526.63,3223.51C4586.93,3277.2 4644.4,2948.05 5320.18,3301.85C5452.43,3371.09 5560.11,3439.69 5645.01,3507.17C5022.68,3582.84 4321.13,3443.14 4321.13,3443.14C4321.13,3443.14 3970.36,3838.7 3418.1,3766.17C3030.38,3715.26 2568.51,3376.77 2602.56,3164.73C2615.39,3084.81 2643.36,3015.82 2683.28,2956.44Z" style="fill:rgb(64,136,61);"/>
        <path d="M4876.19,4253C4832.27,4153.46 5054.38,3970.39 5087.4,3625.56C5089.61,3602.52 5136.91,3616.56 5200.42,3643.24C5219.67,3833.81 5190.11,4010.19 5092.31,4091.84C5028.26,4145.31 4955.29,4198.88 4876.19,4253Z" style="fill:rgb(191,139,94);"/>
        <path d="M4030.45,6336.08C4645.51,6371.44 5436.3,6336.53 5477.56,6669.09C5532.99,7115.89 5244.65,8051.16 5608.34,8145.57C5584.32,8152.7 5558.67,8156.13 5531.28,8155.47C4813.67,8138.31 5522.09,6831.32 5022.84,6612.08C4599.78,6426.3 3682.83,6560.12 4030.45,6336.08Z" style="fill:rgb(191,139,94);"/>
    </g>
    <defs>
        <linearGradient id="_Linear1" x1="0" y1="0" x2="1" y2="0" gradientUnits="userSpaceOnUse" gradientTransform="matrix(3.10647,471.062,-43.9097,0.289567,4219.22,8671.43)"><stop offset="0" style="stop-color:black;stop-opacity:1"/><stop offset="0.18" style="stop-color:rgb(66,44,31);stop-opacity:1"/><stop offset="0.38" style="stop-color:rgb(127,84,59);stop-opacity:1"/><stop offset="1" style="stop-color:rgb(152,101,71);stop-opacity:1"/></linearGradient>
    </defs>
</svg>
