<?xml version="1.0" encoding="UTF-8" standalone="no"?>
<!DOCTYPE svg PUBLIC "-//W3C//DTD SVG 1.1//EN" "http://www.w3.org/Graphics/SVG/1.1/DTD/svg11.dtd">
<svg width="100%" height="100%" viewBox="0 0 3047 4173" version="1.1" xmlns="http://www.w3.org/2000/svg" xmlns:xlink="http://www.w3.org/1999/xlink" xml:space="preserve" xmlns:serif="http://www.serif.com/" style="fill-rule:evenodd;clip-rule:evenodd;stroke-linejoin:round;stroke-miterlimit:2;">
    <g transform="matrix(1,0,0,1,-2987,-3291.5)">
        <g transform="matrix(1,0,0,1,-33,2197)">
            <circle cx="4543.5" cy="3743.5" r="1523.5" style="fill:rgb(235,235,235);"/>
        </g>
        <g transform="matrix(0.874364,0,0,0.874364,537.825,2667.32)">
            <path d="M3023.72,3746.98C3060.7,3781 3370.69,4052.91 3822.85,4044.38C4305.14,4035.28 5003.9,3830.38 5246.77,3792.83C5468.04,3758.62 5984.23,3803.26 6058.53,3671.56C6064.12,3692.61 6067,3716.51 6067,3743.5C6067,4584.34 5384.34,5267 4543.5,5267C3702.66,5267 3020,4584.34 3020,3743.5L3023.72,3746.98Z" style="fill:url(#_Linear1);"/>
        </g>
        <path d="M3178.53,5932.26C3189.1,5588.5 3805.14,5632.38 4442.64,5419.7C5051.77,5216.48 5761.66,5600.76 5835.18,5877.6C5770.22,5992.76 5318.88,5953.73 5125.41,5983.63C4913.06,6016.46 4302.09,6195.62 3880.39,6203.58C3458.68,6211.54 3178.41,5940.5 3178.41,5940.5L3178.53,5932.26Z" style="fill:rgb(255,121,121);"/>
        <g transform="matrix(1,0,0,1,-282.5,-681.486)">
            <rect x="4451" y="4498" width="684" height="874" style="fill:rgb(221,221,221);"/>
        </g>
        <g transform="matrix(1,0,0,1,-1.81899e-12,-136.392)">
            <ellipse cx="4510.5" cy="3952.91" rx="342" ry="218.5" style="fill:rgb(235,235,235);"/>
        </g>
        <g transform="matrix(1,0,0,1,-1.81899e-12,-136.392)">
            <ellipse cx="4510.5" cy="3952.91" rx="342" ry="218.5" style="fill:rgb(235,235,235);"/>
        </g>
        <g transform="matrix(1.24156,0,0,1.24156,-1089.57,-217.272)">
            <ellipse cx="4510.5" cy="3952.91" rx="342" ry="218.5" style="fill:rgb(221,221,221);"/>
        </g>
        <g transform="matrix(1,0,0,1,3.70533,211.132)">
            <path d="M4234.92,3576.16L4204.23,3304C4202.13,3294.76 4201.05,3285.31 4201.05,3275.71C4201.05,3167.9 4338.05,3080.37 4506.8,3080.37C4675.54,3080.37 4812.55,3167.9 4812.55,3275.71C4812.55,3285.31 4811.46,3294.76 4809.36,3304L4778.67,3576.16C4741.24,3644.21 4633.6,3693.4 4506.8,3693.4C4379.99,3693.4 4272.35,3644.21 4234.92,3576.16Z" style="fill:rgb(197,143,86);"/>
        </g>
        <g transform="matrix(0.641419,0,0,0.641419,1617.38,922.396)">
            <ellipse cx="4510.5" cy="3952.91" rx="342" ry="218.5" style="fill:rgb(229,189,146);"/>
        </g>
        <g transform="matrix(1.07411,0,0,1,-334.286,829.273)">
            <path d="M4257.38,2958.02C4292.23,3026.07 4392.44,3075.26 4510.5,3075.26C4628.56,3075.26 4728.77,3026.07 4763.62,2958.02L4759.31,2999.05C4759.31,3093.29 4647.82,3169.8 4510.5,3169.8C4373.18,3169.8 4261.69,3093.29 4261.69,2999.05L4257.38,2958.02Z" style="fill:rgb(155,106,54);"/>
        </g>
    </g>
    <defs>
        <linearGradient id="_Linear1" x1="0" y1="0" x2="1" y2="0" gradientUnits="userSpaceOnUse" gradientTransform="matrix(-4.23775,-1312.31,687.138,-2.21892,4543.5,5356.89)"><stop offset="0" style="stop-color:rgb(173,0,0);stop-opacity:1"/><stop offset="1" style="stop-color:rgb(255,74,74);stop-opacity:1"/></linearGradient>
    </defs>
</svg>
