<?xml version="1.0" encoding="UTF-8" standalone="no"?>
<!DOCTYPE svg PUBLIC "-//W3C//DTD SVG 1.1//EN" "http://www.w3.org/Graphics/SVG/1.1/DTD/svg11.dtd">
<svg width="100%" height="100%" viewBox="0 0 6010 5633" version="1.1" xmlns="http://www.w3.org/2000/svg" xmlns:xlink="http://www.w3.org/1999/xlink" xml:space="preserve" xmlns:serif="http://www.serif.com/" style="fill-rule:evenodd;clip-rule:evenodd;stroke-linecap:round;stroke-linejoin:round;stroke-miterlimit:1.5;">
    <g transform="matrix(1,0,0,1,-1974.76,-3281.97)">
        <g transform="matrix(0.794898,0,0,0.794898,155.106,4882.59)">
            <path d="M8121.07,3308.77C8607.77,3308.77 9002.91,3703.91 9002.91,4190.61C9002.91,4677.31 8601.39,4993.88 8121.07,5072.45L3171.01,5064.38C2684.31,5064.38 2289.17,4669.24 2289.17,4182.54C2289.17,3695.84 2684.31,3300.7 3171.01,3300.7L8121.07,3308.77Z" style="fill:rgb(239,191,124);"/>
        </g>
        <g transform="matrix(0.664151,0,0,0.664151,1175.64,5426.76)">
            <path d="M8121.07,3308.77C8607.77,3308.77 9002.91,3703.91 9002.91,4190.61C9002.91,4677.31 8601.39,4993.88 8121.07,5072.45L6836.32,5068.42C6349.62,5068.42 5954.48,4673.28 5954.48,4186.58C5954.48,3699.88 6349.62,3304.74 6836.32,3304.74L8121.07,3308.77Z" style="fill:rgb(222,169,94);"/>
        </g>
        <g transform="matrix(1,0,0,1,1,0)">
            <path d="M4745.35,5021.32C4973.88,5098.86 5195.74,5183.41 5404.36,5273.79L4164.64,5273.79C4135.89,5273.79 4112.55,5297.12 4112.55,5325.87C4112.55,5354.62 4135.89,5377.95 4164.64,5377.95L5487,5377.95C5513.14,5377.95 5534.8,5358.66 5538.45,5333.55C5745.19,5428.28 5936.51,5528.77 6105.57,5633.85L4715.13,5633.85C4686.38,5633.85 4663.04,5657.18 4663.04,5685.93C4663.04,5714.68 4686.38,5738.01 4715.13,5738.01L6242.69,5738.01C6248.59,5738.01 6254.27,5737.03 6259.54,5735.17C6469.44,5881.87 6634.14,6036.44 6735.97,6195.72C6646.76,6365.27 6562.28,6535.2 6485.34,6703.78C6359.58,6979.37 6261.52,7253.57 6180.93,7512.02C5969.77,8189.18 5890.33,8737.12 6400.1,8914.67L2674.74,8908.25C2287.86,8908.25 1973.76,8594.16 1973.76,8207.28C1973.76,8201.9 1973.83,8196.54 1973.95,8191.18C1983.56,7572.79 2298.62,6827.47 2691.64,6095.74C3088.07,5357.67 3563.83,4633.42 3885.48,4067.16L7857.05,4067.16L7310.5,4342.78L7206.01,4683.91L3519.18,4683.91C3827.1,4749.98 4143.5,4831.86 4452.93,4926.88L3560.32,4926.88C3531.58,4926.88 3508.24,4950.22 3508.24,4978.96C3508.24,5007.71 3531.58,5031.05 3560.32,5031.05L4715.13,5031.05C4726.4,5031.05 4736.85,5027.46 4745.35,5021.32Z" style="fill:rgb(255,220,154);"/>
        </g>
        <g transform="matrix(0.794898,0,0,0.794898,155.106,4882.59)">
            <path d="M2621.12,4871.76L8553.42,4922.7C8553.42,4922.7 8277.21,5046.91 8121.07,5072.45L3171.01,5064.38C2909.92,5075.05 2583.29,4879.35 2621.12,4871.76Z" style="fill:rgb(239,191,124);"/>
        </g>
        <g transform="matrix(1,0,0,1,1,0)">
            <path d="M7857.05,4067.16L7982.9,4067.16C7855.01,4292.3 7702.76,4542.42 7540.84,4808.43L7857.05,4067.16Z" style="fill:rgb(255,220,154);"/>
        </g>
        <g transform="matrix(0.794898,0,0,0.794898,457.082,658.248)">
            <path d="M9044.02,4900.1C8910.11,4981.48 8753.31,5037.19 8587.07,5064.38L3171.01,5064.38C2684.31,5064.38 2289.17,4669.24 2289.17,4182.54C2289.17,3695.84 2684.31,3300.7 3171.01,3300.7L8587.07,3300.7C8599.09,3300.7 8611.06,3300.94 8623.02,3301.49L8623.02,4900.1L9044.02,4900.1Z" style="fill:url(#_Linear1);"/>
        </g>
        <g transform="matrix(1,0,0,1,73.3946,4.54747e-13)">
            <path d="M7238.1,3282.6C7611.73,3297.53 7910.5,3605.62 7910.5,3982.94C7910.5,4235.92 7774.03,4431.07 7572.76,4553.32L7238.1,4553.32L7238.1,3282.6Z" style="fill:rgb(239,191,124);"/>
        </g>
        <g transform="matrix(1,0,0,1,1,0)">
            <path d="M7857.05,4067.16L7540.84,4808.43C7295.47,5211.53 7027.87,5651.13 6789.06,6095.74C6771.18,6129.03 6753.46,6162.35 6735.97,6195.72C6317.95,5541.86 4840.4,4967.41 3519.18,4683.91L7206.01,4683.91L7310.5,4342.78L7857.05,4067.16Z" style="fill:rgb(239,191,124);"/>
        </g>
        <g transform="matrix(1,0,0,1,1,0)">
            <path d="M7738.53,4408.23C7560.53,4746.33 7048.66,5578.44 6789.06,6095.74C6558.62,6554.94 6278.52,7259.5 6180.93,7512.02C6006.75,7962.69 5818.99,8490.76 6322.34,8834.9" style="fill:none;stroke:rgb(239,191,124);stroke-width:104.17px;"/>
        </g>
        <g transform="matrix(0.88088,0,0,0.919298,672.948,141.258)">
            <circle cx="7536.27" cy="4178.93" r="620.454" style="fill:rgb(222,169,94);"/>
        </g>
        <g transform="matrix(0.229295,0,0,1,1719.13,118.595)">
            <path d="M2431.84,8365.6L5581.75,8365.6" style="fill:none;stroke:rgb(239,191,124);stroke-width:143.59px;"/>
        </g>
        <g transform="matrix(0.414793,0,0,1,2257.46,118.595)">
            <path d="M2431.84,8365.6L5581.75,8365.6" style="fill:none;stroke:rgb(239,191,124);stroke-width:136.07px;"/>
        </g>
        <g transform="matrix(0.280325,0,0,1,4162.3,118.595)">
            <path d="M2431.84,8365.6L5581.75,8365.6" style="fill:none;stroke:rgb(239,191,124);stroke-width:141.85px;"/>
        </g>
        <g transform="matrix(0.105082,0,0,1,1885.46,-231.6)">
            <path d="M2431.84,8365.6L5581.75,8365.6" style="fill:none;stroke:rgb(239,191,124);stroke-width:146.51px;"/>
        </g>
        <g transform="matrix(0.414793,0,0,1,1755.29,-231.6)">
            <path d="M2431.84,8365.6L5581.75,8365.6" style="fill:none;stroke:rgb(239,191,124);stroke-width:136.07px;"/>
        </g>
        <g transform="matrix(0.414793,0,0,1,3411.73,-231.6)">
            <path d="M2431.84,8365.6L5581.75,8365.6" style="fill:none;stroke:rgb(239,191,124);stroke-width:136.07px;"/>
        </g>
        <g transform="matrix(0.484954,0,0,1,2287.67,-931.988)">
            <path d="M2431.84,8365.6L5581.75,8365.6" style="fill:none;stroke:rgb(239,191,124);stroke-width:132.55px;"/>
        </g>
        <g transform="matrix(0.436303,0,0,1,1874.98,-2329.48)">
            <path d="M2431.84,8365.6L5581.75,8365.6" style="fill:none;stroke:rgb(239,191,124);stroke-width:135.02px;"/>
        </g>
        <g transform="matrix(0.105082,0,0,1,3815.02,-1632.38)">
            <path d="M2431.84,8365.6L5581.75,8365.6" style="fill:none;stroke:rgb(239,191,124);stroke-width:146.51px;"/>
        </g>
        <g transform="matrix(0.105082,0,0,1,3815.02,-2679.67)">
            <path d="M2431.84,8365.6L5581.75,8365.6" style="fill:none;stroke:rgb(239,191,124);stroke-width:146.51px;"/>
        </g>
        <g transform="matrix(0.105082,0,0,1,3169.46,-3039.73)">
            <path d="M2431.84,8365.6L5581.75,8365.6" style="fill:none;stroke:rgb(239,191,124);stroke-width:146.51px;"/>
        </g>
        <g transform="matrix(0.105082,0,0,1,4739.02,-3386.64)">
            <path d="M2431.84,8365.6L5581.75,8365.6" style="fill:none;stroke:rgb(222,169,94);stroke-width:146.51px;"/>
        </g>
        <g transform="matrix(0.484954,0,0,1,2137.11,-1282.18)">
            <path d="M2431.84,8365.6L5581.75,8365.6" style="fill:none;stroke:rgb(239,191,124);stroke-width:132.55px;"/>
        </g>
        <g transform="matrix(0.484954,0,0,1,3536.8,-1632.38)">
            <path d="M2431.84,8365.6L5581.75,8365.6" style="fill:none;stroke:rgb(239,191,124);stroke-width:132.55px;"/>
        </g>
        <g transform="matrix(0.484954,0,0,1,3536.8,-2679.67)">
            <path d="M5299.01,8313.52L5581.75,8313.52C5641.03,8313.52 5689.15,8336.85 5689.15,8365.6C5689.15,8388.44 5658.76,8407.87 5616.5,8414.84C5515.64,8380.64 5409.71,8346.87 5299.01,8313.52Z" style="fill:rgb(222,169,94);"/>
        </g>
        <g transform="matrix(0.484954,0,0,1,3536.8,-2679.67)">
            <path d="M5299.01,8313.52C5409.61,8346.84 5515.59,8380.63 5616.5,8414.84C5605.62,8416.7 5593.92,8417.68 5581.75,8417.68L2431.84,8417.68C2372.56,8417.68 2324.44,8394.34 2324.44,8365.6C2324.44,8336.85 2372.56,8313.52 2431.84,8313.52L5299.01,8313.52Z" style="fill:rgb(239,191,124);"/>
        </g>
        <g transform="matrix(0.366614,0,0,1,2669.78,-3386.64)">
            <path d="M4866.57,8313.52L5581.75,8313.52C5660.16,8313.52 5723.82,8336.85 5723.82,8365.6C5723.82,8383.07 5700.31,8398.54 5664.19,8407.95C5401.13,8375.2 5134.82,8343.68 4866.57,8313.52Z" style="fill:rgb(222,169,94);"/>
        </g>
        <g transform="matrix(0.366614,0,0,1,2669.78,-3386.64)">
            <path d="M4866.57,8313.52C5134.85,8343.69 5401.21,8375.19 5664.19,8407.95C5641,8414.09 5612.51,8417.68 5581.75,8417.68L2431.84,8417.68C2353.43,8417.68 2289.77,8394.34 2289.77,8365.6C2289.77,8336.85 2353.43,8313.52 2431.84,8313.52L4866.57,8313.52Z" style="fill:rgb(239,191,124);"/>
        </g>
        <g transform="matrix(0.41981,0,0,1,3144.73,-3039.73)">
            <path d="M5384.9,8313.52L5581.75,8313.52C5650.23,8313.52 5705.82,8336.85 5705.82,8365.6C5705.82,8368.21 5705.36,8370.77 5704.32,8373.27C5599.4,8353.08 5492.82,8333.15 5384.9,8313.52Z" style="fill:rgb(222,169,94);"/>
        </g>
        <g transform="matrix(0.41981,0,0,1,3144.73,-3039.73)">
            <path d="M5384.9,8313.52C5492.94,8333.16 5599.49,8353.08 5704.32,8373.27C5695.61,8398.39 5644.01,8417.68 5581.75,8417.68L2431.84,8417.68C2363.37,8417.68 2307.77,8394.34 2307.77,8365.6C2307.77,8336.85 2363.37,8313.52 2431.84,8313.52L5384.9,8313.52Z" style="fill:rgb(239,191,124);"/>
        </g>
        <g transform="matrix(0.306257,0,0,1,4385.55,-1282.18)">
            <path d="M2431.84,8365.6L5581.75,8365.6" style="fill:none;stroke:rgb(239,191,124);stroke-width:140.86px;"/>
        </g>
        <g transform="matrix(0.280325,0,0,1,3972.71,-2336.05)">
            <path d="M2431.84,8365.6L5581.75,8365.6" style="fill:none;stroke:rgb(239,191,124);stroke-width:141.85px;"/>
        </g>
        <g transform="matrix(0.23896,0,0,1,4664.45,-931.988)">
            <path d="M2431.84,8365.6L5581.75,8365.6" style="fill:none;stroke:rgb(239,191,124);stroke-width:143.28px;"/>
        </g>
        <g transform="matrix(0.105082,0,0,1,5232.46,-581.794)">
            <path d="M2431.84,8365.6L5581.75,8365.6" style="fill:none;stroke:rgb(239,191,124);stroke-width:146.51px;"/>
        </g>
        <g transform="matrix(0.436303,0,0,1,2694.98,-581.794)">
            <path d="M2431.84,8365.6L5581.75,8365.6" style="fill:none;stroke:rgb(239,191,124);stroke-width:135.02px;"/>
        </g>
        <g transform="matrix(0.370094,0,0,1,1336.22,-581.794)">
            <path d="M2431.84,8365.6L5581.75,8365.6" style="fill:none;stroke:rgb(239,191,124);stroke-width:138.16px;"/>
        </g>
        <g transform="matrix(0.146412,0,0,1,2309.95,-931.988)">
            <path d="M2431.84,8365.6L5581.75,8365.6" style="fill:none;stroke:rgb(239,191,124);stroke-width:145.76px;"/>
        </g>
        <g transform="matrix(0.0438935,0,0,1,2170,-931.988)">
            <path d="M2431.84,8365.6L5581.75,8365.6" style="fill:none;stroke:rgb(239,191,124);stroke-width:147.17px;"/>
        </g>
        <g transform="matrix(0.185402,0,0,1,1964.13,-1282.18)">
            <path d="M2431.84,8365.6L5581.75,8365.6" style="fill:none;stroke:rgb(239,191,124);stroke-width:144.85px;"/>
        </g>
        <g transform="matrix(0.374613,0,0,1,1665,-1632.38)">
            <path d="M2431.84,8365.6L5581.75,8365.6" style="fill:none;stroke:rgb(239,191,124);stroke-width:137.95px;"/>
        </g>
        <g transform="matrix(0.374613,0,0,1,2355.17,-1982.57)">
            <path d="M2431.84,8365.6L5581.75,8365.6" style="fill:none;stroke:rgb(239,191,124);stroke-width:137.95px;"/>
        </g>
        <g transform="matrix(0.374613,0,0,1,2250.5,-1979.28)">
            <path d="M2431.84,8365.6L5581.75,8365.6" style="fill:none;stroke:rgb(239,191,124);stroke-width:137.95px;"/>
        </g>
        <g transform="matrix(0.217307,0,0,1,2633.04,-2676.38)">
            <path d="M2431.84,8365.6L5581.75,8365.6" style="fill:none;stroke:rgb(239,191,124);stroke-width:143.95px;"/>
        </g>
        <g transform="matrix(0.374613,0,0,1,3805.13,-1979.28)">
            <path d="M2431.84,8365.6L5581.75,8365.6" style="fill:none;stroke:rgb(239,191,124);stroke-width:137.95px;"/>
        </g>
        <g transform="matrix(0.0546046,0,0,1,2631.21,-1982.57)">
            <path d="M2431.84,8365.6L5581.75,8365.6" style="fill:none;stroke:rgb(239,191,124);stroke-width:147.09px;"/>
        </g>
        <g transform="matrix(0.0793672,0,0,1,5949.99,-1979.28)">
            <path d="M2431.84,8365.6L5581.75,8365.6" style="fill:none;stroke:rgb(239,191,124);stroke-width:146.85px;"/>
        </g>
        <g transform="matrix(0.239615,0,0,1,5055.53,-3380.06)">
            <path d="M2431.84,8365.6L5581.75,8365.6" style="fill:none;stroke:rgb(222,169,94);stroke-width:143.26px;"/>
        </g>
        <g transform="matrix(0.0546046,0,0,1,6460.16,-2682.96)">
            <path d="M2431.84,8365.6L5581.75,8365.6" style="fill:none;stroke:rgb(222,169,94);stroke-width:147.09px;"/>
        </g>
        <g transform="matrix(0.374613,0,0,1,4863.2,-3033.15)">
            <path d="M2431.84,8365.6L5581.75,8365.6" style="fill:none;stroke:rgb(222,169,94);stroke-width:137.95px;"/>
        </g>
        <g transform="matrix(0.185402,0,0,1,6192.9,-3383.35)">
            <path d="M2431.84,8365.6L5581.75,8365.6" style="fill:none;stroke:rgb(222,169,94);stroke-width:144.85px;"/>
        </g>
    </g>
    <defs>
        <linearGradient id="_Linear1" x1="0" y1="0" x2="1" y2="0" gradientUnits="userSpaceOnUse" gradientTransform="matrix(1.28226e-12,-1762.89,460.287,3.34797e-13,5518.85,5064.38)"><stop offset="0" style="stop-color:rgb(255,220,154);stop-opacity:1"/><stop offset="0.44" style="stop-color:rgb(255,234,193);stop-opacity:1"/><stop offset="1" style="stop-color:rgb(255,237,203);stop-opacity:1"/></linearGradient>
    </defs>
</svg>
