<?xml version="1.0" encoding="UTF-8" standalone="no"?>
<!DOCTYPE svg PUBLIC "-//W3C//DTD SVG 1.1//EN" "http://www.w3.org/Graphics/SVG/1.1/DTD/svg11.dtd">
<svg width="100%" height="100%" viewBox="0 0 2578 5044" version="1.1" xmlns="http://www.w3.org/2000/svg" xmlns:xlink="http://www.w3.org/1999/xlink" xml:space="preserve" xmlns:serif="http://www.serif.com/" style="fill-rule:evenodd;clip-rule:evenodd;stroke-linecap:round;stroke-linejoin:round;stroke-miterlimit:1.5;">
    <g transform="matrix(0.64,0,0,0.64,-2322.93,-1068.51)">
        <g transform="matrix(0.67087,-0.741575,0.741575,0.67087,-2556.01,5379.42)">
            <path d="M8788.52,5200.92C7082.84,6704.37 5368.98,6236.04 3527.83,6867.74L3473.76,6773.35C5275.18,6084.04 6348.02,5451.62 6901.87,4840.75C7528.44,5116.3 8058.68,5251.97 8788.52,5200.92Z" style="fill:rgb(136,136,136);stroke:black;stroke-width:1px;"/>
        </g>
        <path d="M7196.82,2351.22C7348.53,2158 7499.74,1933.93 7656.62,1669.55C7306.7,4962.73 6569.38,4731.35 5146.22,7423.65L4903.65,7370.63C5670.39,5581.46 7167.47,4624.7 7196.82,2351.22Z" style="fill:rgb(207,207,207);"/>
        <g transform="matrix(0.67087,-0.741575,0.741575,0.67087,-2556.01,5379.42)">
            <path d="M2270.2,7071.81C2327.97,7190.15 2373.94,7326.75 2377.27,7442.66C2197.27,7503.25 2004.67,7573.84 1802.71,7656.36C1707.24,7695.37 1678.69,7126.34 1749.75,7123.75C1920.45,7117.52 2096.54,7098.8 2270.2,7071.81Z" style="fill:rgb(139,93,46);"/>
        </g>
        <g transform="matrix(0.67087,-0.741575,0.741575,0.67087,-2556.01,5379.42)">
            <path d="M2768.2,6972.21C2817.77,7072.16 2859.3,7185.95 2873.8,7289.58C2783.5,7314.94 2687.46,7343.22 2586.41,7374.8C2569.77,7267.34 2539.99,7146.87 2487.57,7033.68C2583.41,7015 2677.44,6994.27 2768.2,6972.21Z" style="fill:rgb(139,93,46);"/>
        </g>
        <g transform="matrix(0.67087,-0.741575,0.741575,0.67087,-2556.01,5379.42)">
            <path d="M2977.75,6917.62C3186.6,6859.45 3369.3,6796.95 3504.96,6741.41L3644.84,7095.7C3540.66,7123.78 3343.97,7165.05 3079.83,7233.88C3060.68,7131.63 3029.13,7020.91 2977.75,6917.62Z" style="fill:rgb(139,93,46);"/>
        </g>
        <path d="M5648.52,8398.54C5591.11,8570.06 5483.34,8731.82 5330.38,8855.55C5553.59,8537.23 5491.36,8141.04 5192.98,7890.47C4700.26,7476.68 3884.25,7105.31 4063.34,6853.54C4128.88,7026.7 4569.49,7182 4928.58,7309.32C4907.09,7349.48 4899.1,7394.93 4910.27,7445.78C4969.17,7713.73 5436.55,7541.52 5648.52,8398.54Z" style="fill:rgb(249,208,0);"/>
        <path d="M5648.52,8398.54C5591.11,8570.06 5483.34,8731.82 5330.38,8855.55C5553.59,8537.23 5491.36,8141.04 5192.98,7890.47C4700.26,7476.68 3884.25,7105.31 4063.34,6853.54C4128.88,7026.7 4569.49,7182 4928.58,7309.32C4907.09,7349.48 4899.1,7394.93 4910.27,7445.78C4969.17,7713.73 5436.55,7541.52 5648.52,8398.54ZM4074.02,6936.02C4075.01,6952.1 4079.81,6968.66 4087.76,6985.69C4102.76,7017.84 4128.05,7051.19 4160.97,7086.01C4369.85,7306.94 4871.91,7574.59 5215.76,7863.35C5466.55,8073.96 5557.99,8382.69 5463.99,8668.83C5528.87,8585.12 5578.41,8492.73 5611.62,8396.99C5466.92,7823.18 5203.52,7730.71 5038.4,7638.7C4955.38,7592.44 4895.7,7544.47 4875.68,7453.38C4865.87,7408.77 4868.65,7367.69 4881.17,7330.08C4635.67,7242.93 4360.32,7142.98 4192.02,7034.02C4143.14,7002.37 4103.08,6969.48 4074.02,6936.02Z" style="fill:rgb(249,208,0);"/>
        <g transform="matrix(1.23,0,0,1.23,-382.179,-2238.48)">
            <circle cx="3620.16" cy="9225.47" r="358.577" style="fill:rgb(142,142,142);"/>
        </g>
        <g transform="matrix(0.676518,0,0,0.676518,1621.53,2867.68)">
            <path d="M3478.12,8896.23C3521.65,8877.34 3569.7,8866.89 3620.16,8866.89C3818.07,8866.89 3978.74,9027.56 3978.74,9225.47C3978.74,9346.84 3918.3,9454.21 3825.85,9519.02C3543.15,9329.53 3512.18,9188.73 3478.12,8896.23Z" style="fill:rgb(255,204,197);"/>
        </g>
        <path d="M3974.54,8886.15C3997.58,9084.02 4018.52,9179.27 4209.79,9307.48C4170.41,9335.21 4122.41,9351.46 4070.63,9351.46C3936.75,9351.46 3828.05,9242.77 3828.05,9108.88C3828.05,9009.14 3888.38,8923.37 3974.54,8886.15Z" style="fill:rgb(255,65,65);"/>
        <path d="M4928.58,7309.32C5110.11,7373.69 5270.79,7430.9 5351.74,7479.68C5677.6,7676.01 5762.97,8056.7 5648.52,8398.54C5436.55,7541.52 4969.17,7713.73 4910.27,7445.78C4899.1,7394.93 4907.09,7349.48 4928.58,7309.32Z" style="fill:rgb(255,247,131);"/>
        <g transform="matrix(1,0,0,1,-112.221,91.4999)">
            <path d="M4441.05,8161.89C4560.16,8198.96 4669.46,8257.68 4760.33,8317.44C4730.66,8381.69 4700.59,8448.58 4670.34,8518.06C4582.16,8442.76 4450.02,8385.19 4323.5,8348.66C4364.11,8286.85 4403.35,8224.37 4441.05,8161.89Z" style="fill:rgb(116,75,32);"/>
        </g>
        <g transform="matrix(1,0,0,1,156.483,-342.194)">
            <path d="M4415.12,8154.21C4526.2,8185.42 4629.46,8236.28 4718.14,8290.68C4687.18,8349.99 4654.74,8413.43 4621.23,8480.84C4534.62,8422.06 4422.39,8376.5 4315.02,8346.24C4350.43,8281.01 4383.87,8216.73 4415.12,8154.21Z" style="fill:rgb(116,75,32);"/>
        </g>
        <g transform="matrix(0.867326,-0.02623,0.0248054,0.82022,728.521,972.027)">
            <path d="M5654.84,5434.96C6191.05,4749.65 6870.36,3865.61 6811.98,3005.44C6635.89,3441.79 6145.55,3485.05 6047.61,3570.02C5911.15,3688.39 6039.22,4478.3 5654.84,5434.96Z" style="fill:rgb(123,119,119);"/>
        </g>
    </g>
</svg>
