<?xml version="1.0" encoding="UTF-8" standalone="no"?>
<!DOCTYPE svg PUBLIC "-//W3C//DTD SVG 1.1//EN" "http://www.w3.org/Graphics/SVG/1.1/DTD/svg11.dtd">
<svg width="100%" height="100%" viewBox="0 0 192 42" version="1.1" xmlns="http://www.w3.org/2000/svg" xmlns:xlink="http://www.w3.org/1999/xlink" xml:space="preserve" xmlns:serif="http://www.serif.com/" style="fill-rule:evenodd;clip-rule:evenodd;stroke-linejoin:round;stroke-miterlimit:2;">
    <g transform="matrix(1,0,0,1,-702.479,-592.32)">
        <g transform="matrix(1,0,0,1,-19.3589,-4.45333)">
            <path d="M912.14,596.794L898.89,596.857C898.559,596.845 896.924,596.87 896.7,597.113C896.7,597.113 895.25,600.504 894.637,601.366C893.746,602.617 893.25,601.43 893.25,601.43C893.25,601.43 890.906,597.86 890.906,597.86C890.698,597.579 889.34,597.479 888.991,597.471L879.451,597.245C879.105,597.237 878.774,597.387 878.552,597.653C878.331,597.919 878.242,598.271 878.312,598.61L879.242,603.113L870.58,604.776C870.58,604.776 876.652,599.128 876.652,599.128C876.994,598.809 877.106,598.314 876.934,597.879C876.763,597.445 876.342,597.16 875.875,597.161L862.663,597.199C862.369,597.2 862.087,597.315 861.876,597.52L855.1,604.092C855.1,604.092 857.652,598.851 857.652,598.851C857.822,598.5 857.801,598.086 857.595,597.755C857.389,597.423 857.027,597.221 856.637,597.219C856.637,597.219 847.165,597.166 842.42,597.234C842.015,597.24 841.644,597.461 841.446,597.815L833.568,611.885L830.326,612.508C830.326,612.508 837.964,598.89 837.964,598.89C838.161,598.538 838.157,598.108 837.953,597.76C837.749,597.413 837.376,597.199 836.973,597.199L824.167,597.213C823.901,597.214 823.643,597.307 823.439,597.478L815.652,603.996C815.652,603.996 818.689,598.896 818.689,598.896C818.897,598.547 818.902,598.112 818.702,597.757C818.501,597.403 818.127,597.182 817.719,597.18C817.719,597.18 808.247,597.128 803.503,597.196C803.097,597.201 802.726,597.423 802.528,597.776L789.937,620.265L786.973,620.834C786.973,620.834 799.213,598.868 799.213,598.868C799.408,598.518 799.404,598.09 799.201,597.743C798.999,597.396 798.629,597.182 798.227,597.18C798.227,597.18 788.424,597.128 783.68,597.196C783.277,597.201 782.907,597.42 782.708,597.771L767.507,624.573L749.185,628.092C749.185,628.092 752.64,621.978 752.64,621.978C756.178,622.359 770.175,622.817 773.641,606.858C774.029,605.075 773.85,603.602 773.252,602.38C772.385,600.611 770.585,599.333 768.034,598.504C762.439,596.684 752.979,596.95 743.408,597.087C743.005,597.092 742.635,597.311 742.437,597.662L722.773,632.331C721.568,633.562 721.218,638.869 723.62,638.447C723.62,638.447 888.24,638.569 888.24,638.569C890.232,638.57 892.071,637.5 893.054,635.768C893.054,635.768 912.809,600.955 912.809,600.955C913.364,599.977 913.598,598.872 913.484,597.789C913.45,597.473 913.286,597.186 913.03,596.997C912.775,596.808 912.452,596.734 912.14,596.794ZM896.593,602.092L894.837,608.998C894.608,609.246 894.28,609.378 893.943,609.36C893.606,609.342 893.295,609.175 893.094,608.904L890.949,603.176L881.931,604.908L884.117,615.496C884.198,615.888 884.066,616.294 883.77,616.564C883.77,616.564 865.405,634.276 865.405,634.276L888.608,634.555L908.325,600.427L896.593,602.092ZM835.034,613.916L823.418,634.271C823.418,634.271 835.083,634.162 835.083,634.162L843.93,620.814C844.223,620.374 844.781,620.194 845.276,620.38C845.77,620.566 846.071,621.07 846.001,621.594C846.001,621.594 843.064,634.27 843.064,634.27C843.064,634.27 856.991,634.27 856.991,634.27L856.104,615.819C856.047,615.448 856.178,615.073 856.453,614.817C856.453,614.817 863.246,608.497 863.246,608.497L835.034,613.916ZM768.965,626.605L764.426,634.251C764.426,634.251 776.672,634.251 776.672,634.251C776.672,634.251 782.619,623.983 782.619,623.983L768.965,626.605ZM791.403,622.295L784.49,634.251C784.49,634.251 797.076,634.251 797.076,634.251C797.076,634.251 809.358,618.847 809.358,618.847L791.403,622.295ZM813.973,617.961L825.954,615.659C825.954,615.659 815.369,634.143 815.369,634.143C815.369,634.143 805.108,634.234 805.108,634.234L813.973,617.961Z"/>
        </g>
    </g>
</svg>
